<svg width="94" height="71" viewBox="0 0 94 71" fill="none" xmlns="http://www.w3.org/2000/svg">
<g clip-path="url(#clip0_770_179)">
<path d="M13.357 0V6.52499H0V71H94V6.52499H80.643V0H78.123V6.52499H64.39V0H61.87V6.52499H48.26V0H45.74V6.52499H32.13V0H29.61V6.52499H15.877V0H13.357V0ZM29.485 8.73651V14.1553H32.005V8.73651H45.74V14.1553H48.26V8.73651H61.87V14.1553H64.39V8.73651H78.124V14.1553H80.644V8.73651H91.607V68.7885H2.52V8.73651H13.483V14.1553H16.003V8.73651H29.485Z" fill="#FCB64F"/>
<path d="M41.708 27.4271H34.778V29.6386H41.708V27.4271ZM24.067 27.4271H17.137V29.6386H24.067V27.4271ZM59.222 27.4271H52.292V29.6386H59.222V27.4271ZM76.863 27.4271H69.933V29.6386H76.863V27.4271ZM41.708 40.3657H34.778V42.5781H41.708V40.3648V40.3657ZM24.067 40.3657H17.137V42.5781H24.067V40.3648V40.3657ZM59.222 40.3657H52.292V42.5781H59.222V40.3648V40.3657ZM76.863 40.3657H69.933V42.5781H76.863V40.3648V40.3657ZM41.708 53.3052H34.778V55.5168H41.708V53.3052ZM24.067 53.3052H17.137V55.5168H24.067V53.3052ZM59.222 53.3052H52.292V55.5168H59.222V53.3052ZM76.863 53.3052H69.933V55.5168H76.863V53.3052Z" fill="#FCB64F"/>
</g>
<defs>
<clipPath id="clip0_770_179">
<rect width="94" height="71" fill="white"/>
</clipPath>
</defs>
</svg>
