<svg width="2016" height="1689" xmlns="http://www.w3.org/2000/svg" xmlns:xlink="http://www.w3.org/1999/xlink" xml:space="preserve" overflow="hidden"><defs><clipPath id="clip0"><rect x="1670" y="331" width="2016" height="1689"/></clipPath></defs><g clip-path="url(#clip0)" transform="translate(-1670 -331)"><path d="M2977.68 463.586 2977.68 1175.5 2678 1175.5 2678 331 1969.68 331 1969.68 957.564 1670 957.564 1670 2020 3686 2020 3686 552.122ZM2024.16 385.484 2623.51 385.484 2623.51 1175.5 2378.32 1175.5 2378.32 957.564 2024.16 957.564ZM2323.84 1965.52 2078.65 1965.52 2078.65 1802.06 1969.68 1802.06 1969.68 1965.52 1724.49 1965.52 1724.49 1012.05 2323.84 1012.05 2323.84 1965.52ZM2977.68 1965.52 2732.49 1965.52 2732.49 1802.06 2623.51 1802.06 2623.51 1965.52 2378.32 1965.52 2378.32 1229.98 2977.68 1229.98ZM3631.51 1965.52 3386.32 1965.52 3386.32 1802.06 3277.35 1802.06 3277.35 1965.52 3032.16 1965.52 3032.16 525.317 3631.51 600.233Z" fill="#FCB64F" fill-rule="evenodd"/><path d="M2515 1585 2624 1585 2624 1694 2515 1694Z" fill="#FCB64F" fill-rule="evenodd"/><path d="M2733 1585 2842 1585 2842 1694 2733 1694Z" fill="#FCB64F" fill-rule="evenodd"/><path d="M2515 1366 2624 1366 2624 1476 2515 1476Z" fill="#FCB64F" fill-rule="evenodd"/><path d="M2733 1366 2842 1366 2842 1476 2733 1476Z" fill="#FCB64F" fill-rule="evenodd"/><path d="M2160 740 2269 740 2269 849.003 2160 849.003Z" fill="#FCB64F" fill-rule="evenodd"/><path d="M2378 740 2487 740 2487 849.003 2378 849.003Z" fill="#FCB64F" fill-rule="evenodd"/><path d="M2160 522 2269 522 2269 631.003 2160 631.003Z" fill="#FCB64F" fill-rule="evenodd"/><path d="M2378 522 2487 522 2487 631.003 2378 631.003Z" fill="#FCB64F" fill-rule="evenodd"/><path d="M1861 1585 1970 1585 1970 1694 1861 1694Z" fill="#FCB64F" fill-rule="evenodd"/><path d="M2079 1585 2188 1585 2188 1694 2079 1694Z" fill="#FCB64F" fill-rule="evenodd"/><path d="M1861 1366 1970 1366 1970 1476 1861 1476Z" fill="#FCB64F" fill-rule="evenodd"/><path d="M2079 1366 2188 1366 2188 1476 2079 1476Z" fill="#FCB64F" fill-rule="evenodd"/><path d="M1861 1148 1970 1148 1970 1258 1861 1258Z" fill="#FCB64F" fill-rule="evenodd"/><path d="M2079 1148 2188 1148 2188 1258 2079 1258Z" fill="#FCB64F" fill-rule="evenodd"/><path d="M3169 1585 3278 1585 3278 1694 3169 1694Z" fill="#FCB64F" fill-rule="evenodd"/><path d="M3387 1585 3496 1585 3496 1694 3387 1694Z" fill="#FCB64F" fill-rule="evenodd"/><path d="M3169 1366 3278 1366 3278 1476 3169 1476Z" fill="#FCB64F" fill-rule="evenodd"/><path d="M3387 1366 3496 1366 3496 1476 3387 1476Z" fill="#FCB64F" fill-rule="evenodd"/><path d="M3169 1148 3278 1148 3278 1258 3169 1258Z" fill="#FCB64F" fill-rule="evenodd"/><path d="M3387 1148 3496 1148 3496 1258 3387 1258Z" fill="#FCB64F" fill-rule="evenodd"/><path d="M3169 931 3278 931 3278 1040 3169 1040Z" fill="#FCB64F" fill-rule="evenodd"/><path d="M3387 931 3496 931 3496 1040 3387 1040Z" fill="#FCB64F" fill-rule="evenodd"/><path d="M3169 713 3278 713 3278 822.003 3169 822.003Z" fill="#FCB64F" fill-rule="evenodd"/><path d="M3387 713 3496 713 3496 822.003 3387 822.003Z" fill="#FCB64F" fill-rule="evenodd"/></g></svg>