<svg width="95" height="81" viewBox="0 0 95 81" fill="none" xmlns="http://www.w3.org/2000/svg">
<mask id="mask0_770_177" style="mask-type:alpha" maskUnits="userSpaceOnUse" x="15" y="0" width="80" height="81">
<path d="M15.4038 0H95V81H15.4038V0Z" fill="#F79D3D"/>
</mask>
<g mask="url(#mask0_770_177)">
<path fill-rule="evenodd" clip-rule="evenodd" d="M87.3941 8.39118C76.8271 -2.12783 59.3089 -2.85271 47.8065 6.75471C47.7513 6.80018 47.6804 6.82525 47.607 6.82525C47.5336 6.82525 47.4626 6.80018 47.4075 6.75471C43.1057 3.15681 37.7409 0.872718 32.0249 0.205529C26.309 -0.46166 20.5122 0.519602 15.4038 3.0191C16.2172 3.60712 16.7889 4.44146 17.0218 5.38046C21.5818 3.20773 26.7332 2.37658 31.8038 2.99546C36.8743 3.61433 41.6285 5.65449 45.4461 8.84973C46.0428 9.34485 46.8115 9.61811 47.6077 9.61811C48.4039 9.61811 49.1726 9.34485 49.7693 8.84973C60.0777 0.239016 75.7762 0.888388 85.2471 10.316C88.1983 13.2863 90.2914 16.9166 91.3272 20.8614C92.3631 24.8062 92.3072 28.9344 91.1649 32.8532H77.5491C77.3834 32.6861 77.2428 32.4985 77.1311 32.2958L74.5967 26.8125C74.4306 26.4471 74.1537 26.1355 73.8006 25.9166C73.4476 25.6977 73.0338 25.5811 72.6107 25.5812C72.1877 25.5814 71.774 25.6983 71.4211 25.9174C71.0682 26.1366 70.7916 26.4483 70.6257 26.8139L66.3492 37.7804L63.2171 21.9896C63.1246 21.525 62.8669 21.1038 62.486 20.795C62.1052 20.4861 61.624 20.3081 61.1212 20.2899C60.6146 20.2893 60.1226 20.4495 59.7252 20.7446C59.3277 21.0397 59.0482 21.4523 58.9318 21.9154L56.2309 32.4564C56.0847 32.628 55.8991 32.7626 55.6872 32.8545H45.259C45.5264 33.7703 45.7296 34.7024 45.8655 35.6456H55.7602C56.5087 35.5825 57.2217 35.3171 57.8131 34.8814C58.4045 34.4458 58.8488 33.8587 59.0926 33.1909L60.9692 25.8611L63.9566 40.9257C64.039 41.3679 64.2739 41.7724 64.6251 42.0767C64.9764 42.3811 65.4245 42.5685 65.9003 42.61C66.3761 42.6516 66.8533 42.5449 67.2582 42.3065C67.6632 42.0682 67.9734 41.7113 68.141 41.2909L72.6748 29.6516L74.4286 33.4408C74.4725 33.5314 75.5336 35.647 77.2553 35.647H90.1769C88.8614 38.7653 86.8775 41.5962 84.3482 43.9639L47.8328 78.1363C47.7725 78.1925 47.6911 78.224 47.6062 78.224C47.5214 78.224 47.4399 78.1925 47.3797 78.1363L24.0855 56.3336C22.2715 56.1167 20.4802 55.7571 18.7303 55.2586L45.2897 80.1146C46.5802 81.2939 48.6322 81.2939 49.9257 80.1146L86.4382 45.9409C97.4686 35.6195 97.8968 18.7729 87.3941 8.38981" fill="#FCB64F"/>
</g>
<path fill-rule="evenodd" clip-rule="evenodd" d="M8.61203 42.2587C6.15537 39.2091 4.44444 35.6883 3.60097 31.947C2.75749 28.2057 2.8022 24.3358 3.73192 20.6125C4.79885 16.0326 7.28929 12.7678 10.9578 9.52507C11.7543 17.2132 21.1141 20.2843 27.602 22.8832C38.4876 27.2462 42.3081 34.2053 39.6276 44.7861C39.2885 45.976 38.8335 47.1342 38.2684 48.2458C35.4885 46.7864 29.0357 43.0659 25.1846 38.1853C24.9475 37.8869 24.5945 37.6886 24.2025 37.6336C23.8105 37.5786 23.4112 37.6713 23.0916 37.8915C22.4281 38.3487 22.2877 39.2177 22.773 39.8382C26.4517 44.4992 32.1036 48.0866 35.4754 49.9661C35.338 50.0018 35.1976 50.0442 35.0617 50.0772C26.8712 52.072 15.0984 50.4754 8.61203 42.2587V42.2587ZM35.8188 52.7764C36.7425 52.5512 37.675 52.2766 38.6732 51.9347C38.7156 51.9196 38.7551 51.8936 38.796 51.8757C39.7748 52.5766 40.5678 53.4806 41.1129 54.5171C41.6581 55.5536 41.9405 56.6943 41.9384 57.8504C41.9401 58.0344 41.9804 58.2163 42.057 58.3857C42.1336 58.5551 42.2449 58.7086 42.3847 58.8375C42.5246 58.9664 42.6901 59.0682 42.8718 59.137C43.0535 59.2058 43.2478 59.2404 43.4437 59.2386C43.8388 59.2378 44.2175 59.0898 44.4965 58.827C44.7755 58.5641 44.932 58.208 44.9316 57.8368C44.9406 56.2869 44.5714 54.7556 43.8524 53.3606C43.1333 51.9655 42.0837 50.7436 40.7838 49.7889C41.5379 48.3982 42.1283 46.9361 42.5405 45.4273C45.5308 33.6246 40.9035 25.1773 28.7829 20.3201C22.6984 17.8818 12.2863 14.5334 14.144 6.52541C14.1849 6.34564 14.1876 6.16 14.152 5.97924C14.1164 5.79848 14.043 5.62604 13.9363 5.47195C13.8296 5.31786 13.6916 5.18514 13.53 5.0813C13.3685 4.97747 13.1868 4.90465 12.9953 4.86696C12.772 4.82229 12.5408 4.8259 12.3193 4.87752C12.0977 4.92913 11.8916 5.02728 11.7164 5.16476C6.0865 9.59505 2.29812 13.6246 0.805871 20.0194C-0.218975 24.1296 -0.266936 28.4014 0.66546 32.5309C1.59786 36.6604 3.48767 40.5461 6.20043 43.9116C11.0791 50.0923 19.5371 53.6701 28.3167 53.6701C30.8476 53.6717 33.3685 53.3713 35.8188 52.7764" fill="#FCB64F"/>
</svg>
