<svg width="86" height="74" viewBox="0 0 86 74" fill="none" xmlns="http://www.w3.org/2000/svg">
<path d="M54.5274 65.0197H54.2753C48.6123 63.3739 42.7471 62.7239 36.8984 63.0939C35.5556 63.1851 34.212 63.2763 32.8692 63.4606C30.266 63.7352 27.6637 64.0107 24.9782 63.9186C20.444 63.7362 15.9116 61.8095 13.0572 58.8748L1.89243 47.2263C1.61812 46.9467 1.39783 46.6095 1.24463 46.2347C1.09143 45.8599 1.00845 45.4552 1.00061 45.0446C0.992775 44.6339 1.06024 44.2258 1.199 43.8443C1.33777 43.4628 1.545 43.1158 1.8084 42.8238C4.5788 39.7058 9.1121 39.6136 11.9657 42.6404L16.4149 47.2263C16.5135 47.3157 16.5928 47.4278 16.6472 47.5546C16.7017 47.6815 16.7299 47.82 16.7299 47.9602C16.7299 48.1004 16.7017 48.2389 16.6472 48.3658C16.5928 48.4927 16.5135 48.6048 16.4149 48.6941C16.3328 48.8018 16.2301 48.8885 16.1141 48.9479C15.9981 49.0073 15.8716 49.0381 15.7435 49.0381C15.6155 49.0381 15.489 49.0073 15.373 48.9479C15.257 48.8885 15.1543 48.8018 15.0722 48.6941L10.6229 44.1073C8.60791 41.9061 5.25017 41.9061 3.23518 44.1995C2.89993 44.5662 2.89993 45.3006 3.23518 45.6673L14.4008 57.3148C16.9191 59.8837 20.9482 61.534 25.0622 61.7173C27.5805 61.8095 30.1829 61.5349 32.7012 61.3506C34.0439 61.2594 35.3876 61.076 36.7303 60.9839C42.7744 60.6172 48.9025 61.2594 54.7795 63.0018C55.2828 63.1851 55.6189 63.7352 55.4508 64.2862C55.3668 64.7442 54.9467 65.0197 54.5274 65.0197V65.0197Z" fill="#FCB64F" stroke="#FCB64F" stroke-width="0.5"/>
<path d="M23.2985 54.5634C22.7037 54.5673 22.1141 54.4419 21.5637 54.1946C21.0133 53.9472 20.5131 53.5829 20.0917 53.1225C19.6704 52.6621 19.3363 52.1147 19.1088 51.512C18.8812 50.9093 18.7648 50.2632 18.766 49.6109C18.766 48.3264 19.2693 47.0429 20.1088 46.1261C20.9491 45.2084 22.1238 44.6573 23.2993 44.6573H26.6571C29.6787 44.6573 32.5331 44.0161 35.3035 42.7316L35.8068 42.457C37.6538 41.6315 39.5847 40.7137 41.5997 40.1636C47.2237 38.6046 56.1222 39.7969 62.4184 48.3264C62.7537 48.7853 62.6705 49.4275 62.2503 49.7952C61.8302 50.1609 61.2437 50.0697 60.9067 49.6109C55.5349 42.3649 47.5598 40.7147 42.019 42.1815C40.088 42.7316 38.4092 43.5572 36.5622 44.3828L36.0589 44.6583C33.0364 46.034 29.9308 46.7674 26.6571 46.7674H23.2985C22.6074 46.7634 21.9431 47.0603 21.4515 47.593C21.2107 47.8582 21.0201 48.173 20.8906 48.5193C20.7611 48.8656 20.6953 49.2366 20.697 49.6109C20.697 51.1699 21.8717 52.4544 23.2993 52.4544H27.1604C29.3434 52.4544 31.6096 52.1788 33.7918 51.72L40.9275 50.0688C41.4317 49.9776 41.935 50.3443 42.103 50.8944C42.1871 51.4454 41.8509 51.9955 41.3476 52.1788L34.212 53.83C31.9449 54.3801 29.5947 54.6556 27.2444 54.6556L23.2985 54.5634V54.5634Z" fill="#FCB64F" stroke="#FCB64F" stroke-width="0.5"/>
<path d="M84.0765 72.999H55.4508C54.2753 72.999 53.1837 72.3568 52.5964 71.2567C52.0091 70.1556 51.925 68.7799 52.5124 67.6798L63.4259 44.7495C64.0132 43.5572 65.1048 42.7316 66.3635 42.7316H84.0765C84.5807 42.7316 85 43.1905 85 43.7406C85 44.2916 84.5798 44.7495 84.0765 44.7495H66.3644C65.861 44.7495 65.3577 45.1172 65.1056 45.5751L54.1912 68.5063C54.0672 68.7602 54.0023 69.0438 54.0023 69.3319C54.0023 69.62 54.0672 69.9036 54.1912 70.1575C54.4433 70.6154 54.8626 70.8909 55.4508 70.8909H84.0765C84.5807 70.8909 85 71.3488 85 71.8989C85 72.5421 84.5798 73 84.0765 73V72.999ZM61.9982 31.2674H1.97646V1H48.9025V11.0895C48.9025 11.6395 48.4824 12.0975 47.9791 12.0975C47.7354 12.0957 47.5021 11.9891 47.3294 11.8006C47.1567 11.6121 47.0584 11.3567 47.0556 11.0895V3.01789H3.90742V29.0662H61.9982C62.5024 29.0662 62.9217 29.5241 62.9217 30.0742C62.9217 30.6252 62.5016 31.2674 61.9982 31.2674Z" fill="#FCB64F" stroke="#FCB64F" stroke-width="0.5"/>
<path d="M18.766 24.4803C18.5139 24.4803 18.2619 24.3882 18.0938 24.2048C13.9806 19.7111 13.9806 12.4642 18.0938 8.06263C18.4299 7.69592 19.1013 7.69592 19.4374 8.06263C19.7735 8.42935 19.7735 9.16278 19.4374 9.52949C18.6397 10.3924 18.0063 11.4205 17.5739 12.5542C17.1416 13.6878 16.9189 14.9044 16.9189 16.1332C16.9189 17.3621 17.1416 18.5786 17.5739 19.7123C18.0063 20.846 18.6397 21.8741 19.4374 22.737C19.7735 23.1047 19.7735 23.8381 19.4374 24.2048C19.2693 24.3882 19.0173 24.4803 18.766 24.4803ZM32.197 24.4803C31.9458 24.4803 31.6937 24.3882 31.5256 24.2048C31.1904 23.8381 31.1904 23.1047 31.5256 22.737C33.1297 20.9886 34.0354 18.6135 34.0439 16.1332C34.0354 13.653 33.1297 11.2779 31.5256 9.52949C31.1904 9.16278 31.1904 8.42935 31.5256 8.06263C31.8617 7.69592 32.5322 7.69592 32.8692 8.06263C34.8834 10.2639 35.8909 13.1064 35.8909 16.1332C35.8909 19.1601 34.7993 22.0948 32.8692 24.2048C32.7012 24.3882 32.4491 24.4803 32.197 24.4803V24.4803ZM40.7603 18.4267C41.5945 18.4267 42.2711 17.6875 42.2711 16.7755C42.2711 15.8635 41.5945 15.1243 40.7594 15.1243C39.9252 15.1243 39.2486 15.8635 39.2486 16.7755C39.2486 17.6875 39.9252 18.4267 40.7603 18.4267ZM10.1196 18.4267C10.9538 18.4267 11.6304 17.6875 11.6304 16.7755C11.6304 15.8635 10.9538 15.1243 10.1196 15.1243C9.28454 15.1243 8.60791 15.8635 8.60791 16.7755C8.60791 17.6875 9.28454 18.4267 10.1196 18.4267ZM25.4815 22.8292C23.4665 22.8292 21.8717 21.0868 21.8717 18.8855C21.8717 18.3345 22.2918 17.8766 22.7952 17.8766C23.2993 17.8766 23.7186 18.3345 23.7186 18.8846C23.7207 19.3716 23.8984 19.8379 24.213 20.1816C24.5276 20.5254 24.9534 20.7186 25.3975 20.7191C25.8414 20.7186 26.2671 20.5255 26.5817 20.182C26.8962 19.8384 27.074 19.3724 27.0764 18.8855C27.0764 18.1511 26.7411 17.6011 25.1454 17.051C22.9632 16.3166 21.8717 14.9409 21.8717 13.1986C21.8717 10.9973 23.4665 9.25494 25.4815 9.25494C27.4965 9.25494 29.0913 10.9973 29.0913 13.1986C29.0913 13.7486 28.6712 14.2075 28.1679 14.2075C27.9241 14.2058 27.6906 14.099 27.5179 13.9103C27.3452 13.7216 27.2469 13.466 27.2444 13.1986C27.2421 12.7117 27.0643 12.2457 26.7497 11.9021C26.4352 11.5586 26.0095 11.3655 25.5656 11.365C25.1216 11.3655 24.6959 11.5586 24.3814 11.9021C24.0668 12.2457 23.889 12.7117 23.8867 13.1986C23.8867 13.7486 24.1388 14.483 25.8176 15.0321C26.8243 15.3998 29.0913 16.2254 29.0913 18.8855C29.0073 21.0868 27.4125 22.8292 25.4815 22.8292V22.8292Z" fill="#FCB64F" stroke="#FCB64F" stroke-width="0.5"/>
<path d="M25.4815 11.4562C25.2377 11.4544 25.0043 11.3477 24.8315 11.159C24.6588 10.9702 24.5606 10.7146 24.558 10.4472V8.7951C24.558 8.24502 24.9782 7.78711 25.4815 7.78711C25.9848 7.78711 26.405 8.24502 26.405 8.7951V10.3541C26.405 10.9051 25.9848 11.4552 25.4815 11.4552V11.4562ZM25.4815 24.4803C25.2377 24.4786 25.0043 24.3718 24.8315 24.1831C24.6588 23.9944 24.5606 23.7388 24.558 23.4714V21.8202C24.558 21.2701 24.9782 20.8113 25.4815 20.8113C25.9848 20.8113 26.405 21.2701 26.405 21.8192V23.4704C26.405 24.0215 25.9848 24.4803 25.4815 24.4803V24.4803ZM58.5565 24.4803H47.9791C47.7352 24.4786 47.5018 24.3718 47.3291 24.1831C47.1563 23.9944 47.0581 23.7388 47.0556 23.4714C47.0556 22.9203 47.4758 22.4624 47.9791 22.4624H58.5565C59.0607 22.4624 59.4799 22.9203 59.4799 23.4704C59.4799 24.0215 59.0598 24.4803 58.5565 24.4803V24.4803ZM54.5274 17.2334H47.9799C47.7361 17.2319 47.5026 17.1254 47.3297 16.9368C47.1568 16.7483 47.0584 16.4928 47.0556 16.2254C47.0556 15.6753 47.4758 15.2165 47.9791 15.2165H54.5265C55.0307 15.2165 55.4508 15.6753 55.4508 16.2244C55.4508 16.7755 55.0307 17.2343 54.5274 17.2343V17.2334Z" fill="#FCB64F" stroke="#FCB64F" stroke-width="0.5"/>
</svg>
