<svg width="1611" height="1127" xmlns="http://www.w3.org/2000/svg" xmlns:xlink="http://www.w3.org/1999/xlink" xml:space="preserve" overflow="hidden"><defs><clipPath id="clip0"><rect x="2163" y="129" width="1611" height="1127"/></clipPath></defs><g clip-path="url(#clip0)" transform="translate(-2163 -129)"><path d="M3693.45 350.343 3169.88 350.343 3169.88 209.488C3169.74 165.091 3133.76 129.133 3089.32 129L2243.55 129C2199.12 129.133 2163.13 165.091 2163 209.488L2163 752.947C2163.13 797.344 2199.12 833.302 2243.55 833.435L2364.37 833.435 2364.37 1034.66 2565.75 833.435 2767.12 833.435 2767.12 974.29C2767.26 1018.69 2803.24 1054.65 2847.67 1054.78L3371.25 1054.78 3572.62 1256 3572.62 1054.78 3693.45 1054.78C3737.88 1054.65 3773.87 1018.69 3774 974.29L3774 430.853C3773.88 386.447 3737.89 350.477 3693.45 350.343ZM2767.12 430.832 2767.12 793.212 2549.12 793.212 2537.32 805.002 2404.65 937.568 2404.65 793.212 2243.55 793.212C2221.31 793.212 2203.27 775.194 2203.27 752.968L2203.27 209.51C2203.27 187.281 2221.31 169.265 2243.55 169.265L3089.32 169.265C3111.57 169.265 3129.6 187.281 3129.6 209.51L3129.6 350.365 2847.67 350.365C2803.24 350.496 2767.26 386.456 2767.12 430.853ZM3733.72 974.29C3733.72 996.519 3715.69 1014.53 3693.45 1014.53L3532.35 1014.53 3532.35 1158.89 3399.8 1026.27 3388 1014.48 2847.67 1014.48C2825.43 1014.48 2807.4 996.457 2807.4 974.231L2807.4 430.853C2807.4 408.625 2825.43 390.609 2847.67 390.609L3693.45 390.609C3715.69 390.609 3733.72 408.625 3733.72 430.853Z" fill="#FCB64F" fill-rule="evenodd"/></g></svg>