<svg width="68" height="68" viewBox="0 0 68 68" fill="none" xmlns="http://www.w3.org/2000/svg">
<path d="M47.988 0L58.9467 26.6242L53.0183 25.1852L62.5395 42.455L56.6111 41.7352L66.1324 57.5658H53.1981C51.001 52.7894 47.7446 48.1043 44.9794 43.5123L47.9885 43.8722C48.5085 43.9354 49.0546 43.687 49.3498 43.2533C49.6449 42.8196 49.675 42.2198 49.4255 41.7585L41.7234 27.7949C42.2831 27.7302 43.4336 27.826 44.2386 28.0198C45.2655 28.2672 46.309 27.0385 45.9005 26.0637L41.6788 15.8323L47.988 0ZM33.6158 0L44.5745 26.6242L38.6461 25.1852L48.1673 42.455L42.239 41.7352L51.7602 57.5658H49.6044V64.7615H66.2664C67.0198 64.7952 67.6738 65.5139 67.6387 66.2684C67.6037 67.0229 66.8848 67.6768 66.1319 67.6397H1.45765C0.698218 67.6507 0 66.9611 0 66.2007C0 65.4403 0.698693 64.7506 1.45765 64.7617H17.9847V57.5659H1.45765L10.7991 41.7353L5.05051 42.4551L14.392 25.1853L8.64336 26.6243L19.2427 0.000128425L30.2014 26.6243L24.273 25.1853L33.7942 42.4551L27.8659 41.7353L37.3871 57.5659H35.2313V64.7617H46.7287V57.5659H38.8242C36.6272 52.7895 33.3707 48.1044 30.6055 43.5124L33.6146 43.8723C34.1346 43.9355 34.6807 43.6871 34.9759 43.2534C35.2711 42.8197 35.3011 42.2199 35.0517 41.7586L27.3495 27.795C28.1341 27.7524 29.0597 27.8262 29.8647 28.0199C30.8917 28.2674 31.9352 27.0386 31.5267 26.0638L27.305 15.8324L33.6158 0ZM32.3584 57.5646H20.861V64.7603H32.3584V57.5646Z" fill="#6CC296"/>
</svg>
