<svg width="90" height="50" viewBox="0 0 90 50" fill="none" xmlns="http://www.w3.org/2000/svg">
<path d="M6.64436 0.638916V2.43362L3.22174 1.53656L4.73151 5.57485L1.6109 10.9591V13.2027L0 15.626L1.6109 23.3439V28.549L6.64444 31.4205V32.9467L11.5775 33.8437L16.7115 37.3437L22.9537 38.1513L26.2753 37.1641L31.108 42.9977L33.1212 41.6512L36.2418 42.2797L40.0675 48.5616L42.8863 49.6389V46.3179L49.0272 42.4593L56.9799 42.9977V40.9337L68.5574 40.8436L74.1948 48.4721L76.1077 48.7413V45.4209L72.7855 39.318L73.6914 35.2797L79.1273 30.164V26.6641L76.4097 23.6129L78.121 22.7159L79.8323 24.1513L81.9461 18.1385L86.5773 14.7281L85.7718 11.3183L90 7.81831L87.4832 3.78001L85.2685 4.4079L83.9602 8.08754L78.6247 9.88225L76.8123 13.113L72.9866 14.1002L69.0604 18.4077L66.6447 18.1386L66.7451 14.4589L63.7248 11.0492L61.0072 12.7544V17.6898L60.0002 18.6771L58.2889 16.7928L58.6913 12.4846L62.6174 9.97178L56.8796 8.80555L54.9666 9.52358H51.544L54.6646 6.83111L47.4163 5.66426L34.2286 5.12589L16.6112 3.06196L6.64436 0.638916Z" fill="#6CC296"/>
</svg>
