<svg width="80" height="68" viewBox="0 0 80 68" fill="none" xmlns="http://www.w3.org/2000/svg">
<g clip-path="url(#clip0_770_174)">
<path d="M30.74 16.6565C31.019 17.061 31.296 17.4647 31.667 17.7881C32.13 18.3548 32.777 18.8395 33.426 19.3242C33.611 19.4864 33.796 19.5674 33.981 19.6485L34.074 19.5674L48.611 6.87236C47.685 5.74077 46.574 4.77133 45.185 4.04251C40.833 7.76246 31.296 16.1709 30.741 16.6565H30.74ZM51.76 6.06421C53.704 4.77046 56.111 3.96231 58.704 3.80015H59.167C64.167 3.96231 68.797 6.87236 70.185 11.1581C71.481 15.3628 69.722 19.9719 65.555 22.4784C61.481 24.9037 55.833 24.8235 51.945 22.1549C51.1141 21.5913 50.3674 20.9394 49.722 20.2143C47.315 22.3973 43.982 23.7712 40.463 23.8523C38.5273 23.895 36.6019 23.5946 34.8033 22.9692C33.0048 22.3439 31.3707 21.4066 30 20.2143C29.26 21.0225 28.333 21.8315 27.315 22.3973C23.241 24.8226 17.593 24.7424 13.704 22.0738C9.814 19.4864 7.963 14.7159 9.63 10.6734C11.389 6.63 15.556 3.96231 20.463 3.71908H20.926C23.519 3.80015 25.926 4.60831 27.963 5.90292C30.463 2.42533 34.815 0.242359 39.63 0H40C44.63 0.0810769 48.981 2.18297 51.389 5.65969C51.574 5.82185 51.667 5.98313 51.759 6.06421H51.76ZM36.76 20.7801C39.815 21.5883 43.24 21.1846 45.926 19.4864C46.759 19.0016 47.407 18.435 48.056 17.7881L49.166 16.3322C49.815 15.2817 50.186 14.1501 50.37 13.0176C50.556 11.9663 50.463 10.8347 50.185 9.70308C50.185 9.54092 50.093 9.37964 50 9.21749L36.76 20.7801ZM42.222 2.992C41.4338 2.82681 40.6256 2.74514 39.815 2.74877C35.833 2.82985 31.945 4.93262 30.278 8.0859C30.185 8.32826 30.093 8.48954 30 8.73277C29.815 9.05533 29.722 9.45985 29.63 9.78328C29.26 11.2392 29.26 12.6951 29.63 14.069C30 13.6645 38.889 5.90292 42.222 2.992V2.992ZM27.963 18.0305C26.111 15.2006 25.648 11.805 26.667 8.73277C25.093 7.43903 23.056 6.63 20.741 6.63C20.371 6.63 20.093 6.63 19.722 6.71108C15.185 7.43903 11.759 10.8347 12.222 14.8772C12.685 18.8395 16.759 21.9126 21.296 21.5883C24.074 21.3459 26.574 19.9711 27.963 18.0313V18.0305ZM32.778 64.8467L58.056 42.7729L58.241 42.6107C57.5 41.3178 56.759 40.1043 55.833 38.8916L27.13 63.9575C28.982 64.3611 30.926 64.6044 32.778 64.8467ZM33.148 67.5955C31.018 67.3531 28.796 67.0297 26.759 66.6252C22.778 65.7359 18.426 64.1188 16.482 60.9655C14.5554 60.8079 12.6393 60.565 10.741 60.2375C5.74 59.2672 0.184997 57.0032 -3.48734e-06 51.9093C-0.0930035 47.0586 1.111 42.126 3.611 37.7601C5.648 34.2833 8.519 31.1301 12.222 28.9462C14.63 27.4903 17.5 26.2785 20.556 26.2785C23.611 26.1974 26.852 27.2488 29.259 28.7849C29.629 29.0273 30.093 29.3516 30.463 29.5931C33.056 28.1372 35.926 27.0867 38.981 26.8443C40.833 26.7632 42.593 26.9254 44.351 27.411C46.1478 27.9118 47.8604 28.6184 49.444 29.512C49.722 29.3507 50.093 29.1084 50.37 28.9462C52.778 27.4903 55.648 26.2785 58.704 26.2785C61.759 26.1974 65 27.2488 67.407 28.7849C71.111 31.1301 74.167 34.1212 76.297 37.679C78.796 41.9647 80 46.6541 80 51.5056V51.8282C80 52.7994 79.722 53.6886 79.352 54.4968C78.982 55.3058 78.333 56.5995 77.5 57.1645C73.704 59.9141 68.519 60.6429 63.796 61.0466H63.519C62.963 62.0169 62.315 62.9872 61.389 63.634C59.537 64.9278 57.315 65.817 55 66.3828C51.389 67.272 47.5 67.7576 43.704 67.9189C42.963 67.9189 42.222 68 41.481 68C38.704 67.9189 35.926 67.8378 33.148 67.5955V67.5955ZM19.63 48.0289L20.74 47.0586L40.926 29.4309C39.352 29.4309 37.686 29.5129 36.019 29.9976C34.9895 30.3192 33.9974 30.7252 33.056 31.2103C32.593 31.4535 32.13 31.6958 31.759 31.9382C31.296 32.1806 30.926 32.5049 30.463 32.7464C24.907 36.5474 21.296 42.2882 19.63 48.0289V48.0289ZM36.667 65.09C38.889 65.1702 41.019 65.2512 43.241 65.1702L60.926 49.7263C60.5614 48.1953 60.0977 46.6835 59.537 45.1982L56.574 47.7857C53.056 50.6975 39.074 62.9872 36.667 65.0891V65.09ZM54.167 36.7897C53.241 35.7384 52.13 34.7681 51.019 33.8779C51.019 33.8779 50.926 33.878 50.926 33.7977L21.296 59.6726L20.186 60.642C20.278 60.8042 20.463 60.8844 20.648 61.0466C21.3228 61.6393 22.1049 62.1312 22.963 62.5025C23.333 62.6637 23.796 62.825 24.259 62.9872C24.907 62.2592 49.907 40.4277 54.167 36.7897ZM61.667 56.6806C61.667 55.386 61.574 54.0931 61.389 52.7994C59.352 54.6589 49.259 63.3917 47.778 64.7656L51.111 64.2809C53.241 63.8764 55.463 63.4719 57.315 62.5827C57.963 62.2592 58.704 61.9358 59.259 61.5313L59.815 61.0466C60.093 60.8042 60.278 60.4799 60.463 60.1573L60.741 59.6717C61.019 59.2672 61.204 58.7825 61.389 58.2969C61.5785 57.7739 61.6723 57.2282 61.667 56.6797V56.6806ZM48.519 32.2616L48.333 32.1004L46.944 31.3724C46.019 30.8868 45.093 30.5634 44.167 30.2399C43.056 31.2103 24.074 47.7857 18.704 52.5562C18.518 54.0931 18.334 55.6292 18.518 57.0843C18.518 57.4888 18.611 57.9735 18.796 58.378C21.944 55.4671 47.593 33.0698 48.519 32.2616V32.2616ZM25.463 33.0698C26.203 32.4229 27.037 31.7769 27.87 31.1301C26.204 30.0787 24.26 29.2696 22.222 29.0273C19.815 28.7047 17.407 29.3507 15.278 30.4021C12.037 32.1004 9.352 34.5257 7.408 37.2745C4.63 41.2368 3.241 45.8451 3.056 50.5345C3.056 51.748 3.056 53.0417 3.889 54.0931C4.629 55.0626 5.649 55.7103 6.759 56.195C8.704 57.0032 10.926 57.4888 13.149 57.8122C13.889 57.8933 14.629 58.0546 15.463 58.1348C15.093 55.9527 15.37 53.6075 15.741 51.4246C15.833 51.1011 15.833 50.8579 15.926 50.5353C16.389 48.1902 17.037 45.9262 17.963 43.6621C19.63 39.7007 22.13 36.0618 25.463 33.0698V33.0698Z" fill="#FCB64F"/>
</g>
<defs>
<clipPath id="clip0_770_174">
<rect width="80" height="68" fill="white"/>
</clipPath>
</defs>
</svg>
