<svg width="41" height="28" viewBox="0 0 41 28" fill="none" xmlns="http://www.w3.org/2000/svg">
<path d="M27.687 3.46245L28.788 21.6154L27.9873 21.5954C25.3447 21.5353 22.7622 22.2358 20.4999 23.6368C18.2378 22.2358 15.6553 21.5954 13.0126 21.5954C9.68934 21.5954 7.02676 22.3759 4.00387 23.6168L6.2861 4.78333C8.36812 3.9227 10.7705 3.46245 13.0127 3.46245C16.0156 3.46245 18.3979 4.42313 20.5 6.56461C22.522 4.50319 24.8041 3.52246 27.687 3.46245ZM41 28C39.1382 28 37.5367 27.6197 35.855 26.8592C33.3526 25.7184 30.75 25.0379 27.9873 25.0379C25.1445 25.0379 22.522 25.9786 20.5 28C18.478 25.9785 15.8555 25.0379 13.0127 25.0379C10.25 25.0379 7.64744 25.7184 5.14502 26.8592C3.52344 27.5797 1.88181 28 0.100141 28H0L3.10304 2.5418C5.96584 0.920646 9.44924 0 12.7524 0C15.455 0 18.2378 0.560365 20.5 2.12151C22.7622 0.560365 25.545 0 28.2476 0C31.5508 0 35.0342 0.920646 37.897 2.5418L41 28ZM37.8369 24.7376L35.3545 4.30303C33.1123 3.28227 30.4497 2.74189 27.9873 2.74189C25.1846 2.74189 22.562 3.6225 20.5 5.56391C18.438 3.6225 15.8155 2.74189 13.0127 2.74189C10.5503 2.74189 7.88769 3.28227 5.6455 4.30303L3.16307 24.7376C6.60643 23.3167 9.20899 22.2959 13.0127 22.2959C15.7553 22.2959 18.1777 22.9964 20.5 24.4575C22.8223 22.9964 25.2446 22.2959 27.9873 22.2959C31.791 22.2959 34.3936 23.3167 37.8369 24.7376Z" fill="#3D82A1"/>
</svg>
