<svg width="48" height="49" xmlns="http://www.w3.org/2000/svg">
    <path d="M24.956 15.295c1.699.01 7.646.076 9.311.535a3.174 3.174 0 0 1 2.21 2.27c.463 1.772.516 5.252.522 6.024l.001.114v.194c-.007.772-.06 4.252-.522 6.025a3.175 3.175 0 0 1-2.21 2.27c-1.747.48-8.204.53-9.53.535h-.478c-.617-.002-2.343-.014-4.19-.075l-.556-.02c-1.953-.074-3.93-.206-4.783-.44a3.175 3.175 0 0 1-2.21-2.27c-.478-1.83-.519-5.479-.522-6.09v-.177c.003-.612.044-4.26.522-6.09a3.174 3.174 0 0 1 2.21-2.27c.731-.202 2.288-.327 3.948-.406l.556-.024.279-.011.557-.02a153.75 153.75 0 0 1 3.972-.074zm-2.8 5.467v7.813l6.25-3.906-6.25-3.907z" fill="currentColor" fill-rule="evenodd"/>
</svg>
