<svg width="48" height="49" xmlns="http://www.w3.org/2000/svg">
    <path d="M25.674 12.295c2.346.004 2.819.021 3.98.074 1.33.061 2.239.272 3.034.581.822.32 1.52.747 2.214 1.442a6.128 6.128 0 0 1 1.442 2.214c.309.795.52 1.704.58 3.034.054 1.162.072 1.634.075 3.98l.001.855V25.968c-.004 2.346-.022 2.819-.075 3.98-.06 1.33-.272 2.239-.581 3.034a6.128 6.128 0 0 1-1.442 2.214 6.128 6.128 0 0 1-2.214 1.442c-.795.309-1.704.52-3.034.58-1.161.054-1.634.072-3.98.075l-.855.001H23.326c-2.346-.004-2.819-.022-3.98-.075-1.33-.06-2.239-.272-3.034-.581a6.128 6.128 0 0 1-2.214-1.442 6.127 6.127 0 0 1-1.442-2.214c-.309-.795-.52-1.704-.58-3.034-.054-1.161-.072-1.634-.075-3.98V23.62c.003-2.346.021-2.818.074-3.98.06-1.33.272-2.239.581-3.034.32-.822.747-1.519 1.442-2.214a6.127 6.127 0 0 1 2.214-1.442c.795-.309 1.704-.52 3.034-.58 1.161-.054 1.634-.071 3.98-.075h2.348zm-.258 2.252h-1.834c-1.765.002-2.506.01-3.203.034l-.22.008c-.22.008-.447.018-.71.03-1.22.056-1.881.26-2.322.43-.583.228-1 .498-1.437.936a3.872 3.872 0 0 0-.935 1.437c-.171.44-.375 1.102-.43 2.321-.013.264-.023.49-.031.711l-.008.22c-.024.697-.032 1.438-.034 3.203v1.834c.002 1.766.01 2.506.034 3.203l.008.22c.008.221.018.448.03.711.056 1.22.26 1.88.43 2.321.228.584.498 1 .936 1.438.437.437.854.708 1.437.935.44.17 1.102.375 2.321.43.264.012.49.022.711.03l.33.012c.63.02 1.337.028 2.823.03h2.375a89.2 89.2 0 0 0 2.933-.033l.22-.008.71-.03c1.22-.056 1.88-.26 2.321-.431.584-.227 1-.498 1.438-.935.437-.438.708-.854.935-1.438.17-.44.375-1.102.43-2.32.012-.264.022-.491.03-.712l.009-.22c.022-.66.03-1.36.033-2.932l.001-.864V23.607a95.014 95.014 0 0 0-.03-2.822l-.012-.33-.03-.712c-.056-1.219-.26-1.88-.431-2.32-.227-.584-.498-1-.935-1.438a3.872 3.872 0 0 0-1.438-.935c-.44-.171-1.102-.375-2.32-.43-.264-.013-.491-.023-.712-.031l-.22-.008c-.697-.024-1.437-.032-3.203-.034zm-.915 3.828.23.004a6.419 6.419 0 1 1-.23-.004zm-.001 2.252a4.167 4.167 0 0 0-.208 8.329l.208.005.208-.005a4.167 4.167 0 0 0-.208-8.329zm6.672-4.005a1.5 1.5 0 1 1 0 3 1.5 1.5 0 0 1 0-3z" fill="currentColor" fill-rule="evenodd"/>
</svg>
