<svg width="48" height="49" xmlns="http://www.w3.org/2000/svg">
    <path d="M18.54 20.503h-4.287v12.88h4.287v-12.88zm.283-3.984c-.028-1.263-.931-2.225-2.398-2.225-1.466 0-2.425.962-2.425 2.225 0 1.237.93 2.226 2.37 2.226h.027c1.495 0 2.426-.99 2.426-2.226zM34 25.999c0-3.957-2.115-5.798-4.936-5.798-2.276 0-3.295 1.25-3.864 2.127v-1.825h-4.287c.057 1.209 0 12.88 0 12.88H25.2V26.19c0-.385.028-.769.142-1.044.31-.77 1.015-1.566 2.2-1.566 1.55 0 2.171 1.181 2.171 2.912v6.891H34v-7.385z" fill="currentColor" fill-rule="evenodd"/>
</svg>
