<svg width="48" height="49" xmlns="http://www.w3.org/2000/svg">
    <path d="m23.624 19.683.057.93-.94-.115c-3.419-.436-6.406-1.915-8.942-4.4l-1.24-1.233-.32.91c-.675 2.03-.243 4.173 1.166 5.615.751.796.582.91-.714.436-.451-.152-.846-.265-.883-.209-.132.133.32 1.86.676 2.542.489.948 1.484 1.878 2.574 2.428l.92.436-1.09.019c-1.051 0-1.089.019-.976.417.376 1.233 1.86 2.541 3.513 3.11l1.165.399-1.015.607a10.577 10.577 0 0 1-5.035 1.403c-.845.02-1.54.095-1.54.152 0 .19 2.292 1.252 3.626 1.669 4.001 1.233 8.754.702 12.324-1.404 2.536-1.498 5.072-4.476 6.256-7.358.638-1.537 1.277-4.344 1.277-5.69 0-.873.056-.987 1.108-2.03.62-.607 1.203-1.27 1.315-1.46.188-.36.17-.36-.789-.038-1.596.569-1.822.493-1.033-.36.583-.607 1.278-1.707 1.278-2.03 0-.057-.282.038-.601.209-.339.19-1.09.474-1.654.645l-1.014.322-.92-.626c-.508-.341-1.222-.72-1.598-.834-.958-.266-2.423-.228-3.287.076-2.348.853-3.833 3.053-3.664 5.462z" fill="currentColor" fill-rule="evenodd"/>
</svg>
