<svg width="49" height="59" viewBox="0 0 49 59" fill="none" xmlns="http://www.w3.org/2000/svg">
<path d="M44.161 5.85355V50.0423C44.161 52.3918 42.2406 54.3103 39.8943 54.3103H6.03197V55.5625C6.03197 57.2544 7.41726 58.6401 9.10585 58.6401H45.9261C47.6148 58.6401 49 57.2548 49 55.5625V8.92701C49 7.23717 47.6147 5.85313 45.9261 5.85313L44.161 5.85355ZM12.9871 0.333216V9.05351C12.9871 11.4011 11.0698 13.3179 8.72269 13.3179H0V50.0424C0 51.7343 1.38893 53.12 3.07762 53.12H39.8948C41.5867 53.12 42.9724 51.7347 42.9724 50.0424L42.972 3.40688C42.972 1.71819 41.5867 0.333008 39.8948 0.333008L12.9871 0.333216ZM0.84169 12.1277H8.72248C10.4112 12.1277 11.7964 10.7424 11.7964 9.05382V1.17303L0.84169 12.1277ZM15.515 18.4712C16.2988 18.4712 16.2988 19.6608 15.515 19.6608H4.27029C3.48657 19.6608 3.48657 18.4712 4.27029 18.4712H15.515ZM15.4532 22.7684C16.2369 22.7684 16.2369 23.9581 15.4532 23.9581H4.2699C3.48618 23.9581 3.48618 22.7684 4.2699 22.7684H15.4532ZM37.6793 27.2138C38.463 27.2138 38.463 28.4034 37.6793 28.4034L4.2699 28.403C3.48618 28.403 3.48618 27.2134 4.2699 27.2134L37.6793 27.2138ZM37.8578 31.5542C38.6415 31.5542 38.6415 32.7439 37.8578 32.7439L4.2704 32.7435C3.48668 32.7435 3.48668 31.5538 4.2704 31.5538L37.8578 31.5542ZM15.4527 35.8512C16.2364 35.8512 16.2364 37.0408 15.4527 37.0408H4.26936C3.48564 37.0408 3.48564 35.8512 4.26936 35.8512H15.4527ZM11.2513 40.2977C12.0314 40.2977 12.0314 41.4874 11.2513 41.4874L4.26967 41.487C3.48595 41.487 3.48595 40.2973 4.26967 40.2973L11.2513 40.2977ZM14.5396 46.7266C13.5903 46.1121 12.3486 46.9515 12.5861 48.0688C12.824 49.1893 14.2979 49.4541 14.9162 48.5015C15.3001 47.9102 15.1321 47.1102 14.5395 46.7266L14.5396 46.7266ZM22.0531 38.0795C21.1014 37.4613 19.8622 38.3044 20.0997 39.4217C20.3376 40.5422 21.8115 40.807 22.4297 39.8544C22.8133 39.2623 22.642 38.4623 22.0531 38.0795L22.0531 38.0795ZM27.9301 45.8997C27.867 46.0185 27.4603 46.3463 27.6096 47.0438C27.8475 48.1643 29.3214 48.4291 29.9396 47.4765C30.5578 46.5272 29.718 45.2855 28.5975 45.523C28.3302 45.5788 28.1029 45.7154 27.93 45.8997L27.9301 45.8997ZM35.6324 39.2561C36.6866 39.9462 37.8575 39.0181 37.629 37.944C37.3947 36.8268 35.9172 36.562 35.3014 37.5112C34.9281 38.0855 35.0741 38.8599 35.6325 39.256L35.6324 39.2561ZM30.2577 44.7393L34.4851 39.8006C33.2922 38.386 34.0349 36.1808 35.8634 35.7937C38.0149 35.3378 39.6349 37.7272 38.4453 39.5558C37.8002 40.547 36.5443 40.9447 35.4506 40.4982L31.0544 45.6313C31.8077 47.0727 30.9788 48.8545 29.3788 49.1949C27.3684 49.6183 25.7428 47.5355 26.6452 45.6907L22.5334 41.3235C21.766 41.74 20.8436 41.7164 20.1103 41.2873L15.7898 46.2817C16.9033 47.7101 16.1432 49.8384 14.3554 50.2186C12.2039 50.6746 10.5839 48.2852 11.7699 46.4566C12.4345 45.4349 13.7428 45.0477 14.8544 45.5471L19.2579 40.4592C18.3554 39.0146 19.1655 37.0905 20.8416 36.737C22.9967 36.2774 24.6306 38.6705 23.4104 40.5222L27.4149 44.7789C28.2617 44.1611 29.4053 44.1586 30.2578 44.7394L30.2577 44.7393ZM35.7048 8.04502C34.6006 6.94085 33.1161 6.21078 31.4673 6.06845V12.2863H37.6851C37.5403 10.6362 36.8127 9.15294 35.7048 8.04513V8.04502ZM30.8722 4.85558C35.3045 4.85558 38.8987 8.44848 38.8987 12.882C38.8987 13.2119 38.6339 13.4766 38.3041 13.4766H30.8735C30.5436 13.4766 30.2789 13.2119 30.2789 12.882V5.4502C30.2777 5.11913 30.5424 4.85559 30.8723 4.85559L30.8722 4.85558ZM33.4272 20.2119C34.5351 19.1078 35.2614 17.6233 35.4038 15.9744H28.5947C28.2648 15.9744 28 15.7064 28 15.3798V8.56698C24.4865 8.86794 21.7554 11.8158 21.7554 15.3794C21.7554 19.1541 24.8162 22.2154 28.5947 22.2154C30.483 22.2154 32.1912 21.4516 33.4272 20.2119L33.4272 20.2119ZM36.6215 15.3794C36.6215 19.8117 33.0286 23.4059 28.5951 23.4059C24.1591 23.4059 20.5662 19.813 20.5662 15.3794C20.5662 10.9435 24.1591 7.35056 28.5951 7.35056C28.9229 7.35056 29.1897 7.61858 29.1897 7.94517V14.7845H36.0256C36.3567 14.7849 36.6215 15.0496 36.6215 15.3795L36.6215 15.3794Z" fill="#6CC296"/>
</svg>
