<svg width="68" height="50" viewBox="0 0 68 50" fill="none" xmlns="http://www.w3.org/2000/svg">
<path d="M6.82607 46.2836C6.33271 46.3656 5.83934 46.2015 5.51006 45.9549C5.09873 45.6261 4.93409 45.2148 4.93409 44.7215V8.53491H1.6447C0.740003 8.53491 0 9.27496 0 10.1796V48.011C0 48.9157 0.740047 49.6557 1.6447 49.6557H27.9622C21.5479 46.283 14.0637 45.0491 6.82595 46.283L6.82607 46.2836Z" fill="#6CC296"/>
<path d="M65.7934 8.45203H62.504V44.6386C62.504 45.1319 62.2574 45.5433 61.9281 45.872C61.5993 46.2007 61.1054 46.2833 60.6121 46.2007C53.3746 44.9673 45.973 46.2007 39.4758 49.4901H65.7933C66.698 49.4901 67.438 48.75 67.438 47.8454V10.014C67.4392 9.19307 66.6985 8.45242 65.7939 8.45242L65.7934 8.45203Z" fill="#6CC296"/>
<path d="M27.9623 17.4988C27.9623 18.1568 27.551 18.7322 26.9756 18.9789C26.7289 19.0609 26.4822 19.1435 26.3176 19.1435C25.9062 19.1435 25.5775 18.9789 25.2482 18.7322L20.3961 14.538L15.6261 17.252C15.1327 17.4987 14.4747 17.4987 13.9814 17.252C13.488 16.9233 13.1587 16.4293 13.1587 15.8539V1.37903C11.514 1.37903 9.86931 1.37903 8.22388 1.62571V42.7468C9.62192 42.5821 10.9379 42.5001 12.336 42.5001C19.2442 42.5001 26.1524 44.4741 32.0741 48.0923L32.0747 7.62914C30.7587 6.72445 29.3607 5.90176 27.9626 5.16173L27.9623 17.4988Z" fill="#6CC296"/>
<path d="M59.2146 42.7472V1.62611C50.8257 0.556787 42.2727 2.77747 35.3643 7.62964L35.3638 48.0928C42.4366 43.734 50.9075 41.8421 59.214 42.7467L59.2146 42.7472ZM46.8782 37.5664C45.7269 37.5664 44.8222 36.6617 44.8222 35.5103C44.8222 34.359 45.7269 33.4543 46.8782 33.4543C48.0296 33.4543 48.9343 34.359 48.9343 35.5103C48.9343 36.6617 48.0296 37.5664 46.8782 37.5664ZM48.5229 22.3516V27.3683C48.5229 28.273 47.7829 29.013 46.8782 29.013C45.9735 29.013 45.2335 28.273 45.2335 27.3683V21.6115C45.2335 20.2135 46.3029 19.1441 47.701 19.1441C49.5103 19.1441 50.9903 17.6641 50.9903 15.8547C50.9903 14.0454 49.5103 12.5653 47.701 12.5653H46.0563C44.2469 12.5653 42.7669 14.0454 42.7669 15.8547C42.7669 16.5127 42.3555 17.0881 41.8622 17.3348C41.6155 17.4168 41.3688 17.4994 41.1221 17.4994C40.2174 17.4994 39.4774 16.7594 39.4774 15.8548C39.4774 12.236 42.4381 9.27523 46.0569 9.27523H47.7016C51.3204 9.27523 54.2812 12.236 54.2812 15.8548C54.28 19.2262 51.7306 21.9404 48.5232 22.3516L48.5229 22.3516Z" fill="#6CC296"/>
<path d="M21.6299 11.3306L24.6727 13.9626V2.69501V2.36629L16.4485 0.638916V13.0573L19.7379 11.1659C20.3139 10.7546 21.1365 10.8372 21.6299 11.3306V11.3306Z" fill="#6CC296"/>
</svg>
