<svg width="46" height="78" viewBox="0 0 46 78" fill="none" xmlns="http://www.w3.org/2000/svg">
<g clip-path="url(#clip0_770_173)">
<path d="M45.129 38.8376H34.674C34.5584 38.8374 34.4439 38.8584 34.3373 38.8994C34.2306 38.9403 34.1339 39.0003 34.0528 39.0759C33.9717 39.1515 33.9079 39.2412 33.865 39.3397C33.8221 39.4383 33.801 39.5436 33.803 39.6497C33.8009 39.7558 33.8218 39.8613 33.8647 39.9599C33.9075 40.0586 33.9713 40.1483 34.0524 40.2241C34.1336 40.2998 34.2303 40.3599 34.337 40.4009C34.4438 40.4418 34.5583 40.4629 34.674 40.4627H45.13C45.2457 40.4629 45.3603 40.4418 45.467 40.4009C45.5737 40.3599 45.6705 40.2998 45.7516 40.2241C45.8327 40.1483 45.8965 40.0586 45.9393 39.9599C45.9822 39.8613 46.0031 39.7558 46.001 39.6497C46.003 39.5436 45.9819 39.4383 45.939 39.3397C45.8962 39.2412 45.8323 39.1515 45.7512 39.0759C45.6701 39.0003 45.5734 38.9403 45.4667 38.8994C45.3601 38.8584 45.2456 38.8374 45.13 38.8376H45.129ZM45.129 31.8497H34.674C34.5583 31.8496 34.4438 31.8706 34.337 31.9116C34.2303 31.9526 34.1336 32.0127 34.0524 32.0884C33.9713 32.1641 33.9075 32.2539 33.8647 32.3525C33.8218 32.4511 33.8009 32.5566 33.803 32.6627C33.801 32.7688 33.8221 32.8742 33.865 32.9727C33.9079 33.0712 33.9717 33.1609 34.0528 33.2365C34.1339 33.3121 34.2306 33.3721 34.3373 33.4131C34.4439 33.454 34.5584 33.475 34.674 33.4748H45.13C45.2456 33.475 45.3601 33.454 45.4667 33.4131C45.5734 33.3721 45.6701 33.3121 45.7512 33.2365C45.8323 33.1609 45.8962 33.0712 45.939 32.9727C45.9819 32.8742 46.003 32.7688 46.001 32.6627C46.0031 32.5566 45.9822 32.4511 45.9393 32.3525C45.8965 32.2539 45.8327 32.1641 45.7516 32.0884C45.6705 32.0127 45.5737 31.9526 45.467 31.9116C45.3603 31.8706 45.2457 31.8496 45.13 31.8497H45.129ZM45.129 24.8627H34.674C34.5584 24.8626 34.4439 24.8836 34.3373 24.9245C34.2306 24.9654 34.1339 25.0255 34.0528 25.1011C33.9717 25.1767 33.9079 25.2664 33.865 25.3649C33.8221 25.4634 33.801 25.5688 33.803 25.6748C33.8009 25.781 33.8218 25.8865 33.8647 25.9851C33.9075 26.0837 33.9713 26.1735 34.0524 26.2492C34.1336 26.3249 34.2303 26.385 34.337 26.426C34.4438 26.467 34.5583 26.488 34.674 26.4879H45.13C45.2457 26.488 45.3603 26.467 45.467 26.426C45.5737 26.385 45.6705 26.3249 45.7516 26.2492C45.8327 26.1735 45.8965 26.0837 45.9393 25.9851C45.9822 25.8865 46.0031 25.781 46.001 25.6748C46.003 25.5688 45.9819 25.4634 45.939 25.3649C45.8962 25.2664 45.8323 25.1767 45.7512 25.1011C45.6701 25.0255 45.5734 24.9654 45.4667 24.9245C45.3601 24.8836 45.2456 24.8626 45.13 24.8627H45.129ZM45.129 17.8758H34.674C34.5585 17.8756 34.4441 17.8966 34.3375 17.9375C34.2309 17.9783 34.1342 18.0383 34.0532 18.1138C33.9721 18.1893 33.9082 18.2789 33.8653 18.3773C33.8223 18.4757 33.8011 18.581 33.803 18.687C33.8009 18.7931 33.8218 18.8986 33.8647 18.9972C33.9075 19.0958 33.9713 19.1856 34.0524 19.2613C34.1336 19.337 34.2303 19.3971 34.337 19.4381C34.4438 19.4791 34.5583 19.5001 34.674 19.5H45.13C45.2457 19.5001 45.3603 19.4791 45.467 19.4381C45.5737 19.3971 45.6705 19.337 45.7516 19.2613C45.8327 19.1856 45.8965 19.0958 45.9393 18.9972C45.9822 18.8986 46.0031 18.7931 46.001 18.687C46.003 18.5809 45.9819 18.4755 45.939 18.377C45.8962 18.2785 45.8323 18.1888 45.7512 18.1132C45.6701 18.0376 45.5734 17.9776 45.4667 17.9366C45.3601 17.8957 45.2456 17.8747 45.13 17.8748L45.129 17.8758ZM34.674 12.513H45.13C45.2456 12.5131 45.3601 12.4919 45.4667 12.4509C45.5733 12.4099 45.6699 12.3497 45.7509 12.274C45.8319 12.1983 45.8957 12.1086 45.9384 12.01C45.9812 11.9115 46.0021 11.8061 46 11.7C46.002 11.5939 45.9809 11.4886 45.938 11.39C45.8952 11.2915 45.8313 11.2018 45.7502 11.1262C45.6691 11.0506 45.5724 10.9906 45.4657 10.9497C45.3591 10.9088 45.2446 10.8877 45.129 10.8879H34.674C34.5584 10.8877 34.4439 10.9088 34.3373 10.9497C34.2306 10.9906 34.1339 11.0506 34.0528 11.1262C33.9717 11.2018 33.9079 11.2915 33.865 11.39C33.8221 11.4886 33.801 11.5939 33.803 11.7C33.8009 11.8061 33.8218 11.9116 33.8647 12.0102C33.9075 12.1089 33.9713 12.1987 34.0524 12.2744C34.1336 12.3501 34.2303 12.4102 34.337 12.4512C34.4438 12.4921 34.5583 12.5132 34.674 12.513ZM20.038 50.4073V7.31365C20.0401 7.2075 20.0192 7.10203 19.9763 7.00341C19.9335 6.90479 19.8697 6.81499 19.7886 6.73928C19.7075 6.66358 19.6107 6.60347 19.504 6.56249C19.3973 6.52151 19.2827 6.50047 19.167 6.50061C19.0512 6.50035 18.9366 6.5213 18.8297 6.56222C18.7229 6.60315 18.626 6.66323 18.5448 6.73896C18.4636 6.81468 18.3997 6.90451 18.3568 7.00319C18.3139 7.10188 18.2929 7.20742 18.295 7.31365V50.4064C12.458 50.8285 7.841 55.3791 7.841 60.9364C7.841 66.7542 12.929 71.4985 19.167 71.4985C25.405 71.4985 30.492 66.7542 30.492 60.9364C30.492 55.3791 25.875 50.8294 20.038 50.4064V50.4073ZM19.167 69.8752C13.887 69.8752 9.583 65.8614 9.583 60.9373C9.583 56.0141 13.887 51.9994 19.167 51.9994C24.447 51.9994 28.75 56.0141 28.75 60.9373C28.75 65.8614 24.446 69.8752 19.167 69.8752Z" fill="#FCB64F" stroke="#FCB64F"/>
<path d="M29.447 45.0445V9.75C29.447 4.37167 24.76 0 18.992 0C13.225 0 8.538 4.37167 8.538 9.75V45.2565C3.188 48.5876 0 54.1118 0 60.1242C0 69.9889 8.59 78 19.167 78C29.743 78 38.333 69.9889 38.333 60.1242C38.333 56.9886 37.445 53.9017 35.772 51.1873C34.2262 48.7071 32.0578 46.6013 29.447 45.0445V45.0445ZM19.167 76.3758C9.566 76.3758 1.742 69.0805 1.742 60.1261C1.742 54.5193 4.774 49.385 9.88 46.3788C10.123 46.232 10.28 45.9723 10.28 45.6961V9.75C10.28 5.26454 14.183 1.62515 18.992 1.62515C23.802 1.62515 27.704 5.26454 27.704 9.75V45.4832C27.7019 45.623 27.7394 45.761 27.8128 45.8836C27.8863 46.0062 27.9931 46.1092 28.123 46.1824C33.42 49.1556 36.591 54.3559 36.591 60.1252C36.591 69.0786 28.767 76.3748 19.167 76.3748V76.3758Z" fill="#FCB64F" stroke="#FCB64F"/>
</g>
<defs>
<clipPath id="clip0_770_173">
<rect width="46" height="78" fill="white"/>
</clipPath>
</defs>
</svg>
