<svg width="74" height="70" viewBox="0 0 74 70" fill="none" xmlns="http://www.w3.org/2000/svg">
<g clip-path="url(#clip0_770_172)">
<path d="M73.075 68.25H37.925V40.1625C49.21 39.725 58.275 30.8875 58.275 20.125C58.275 9.0125 48.7475 0 37 0C25.2525 0 15.725 9.0125 15.725 20.125C15.725 30.8875 24.79 39.725 36.075 40.1625V68.25H0.925C0.37 68.25 0 68.6 0 69.125C0 69.65 0.37 70 0.925 70H73.075C73.63 70 74 69.65 74 69.125C74 68.6 73.63 68.25 73.075 68.25ZM17.575 20.125C17.575 9.975 26.27 1.75 37 1.75C47.73 1.75 56.425 9.975 56.425 20.125C56.425 29.925 48.1925 37.975 37.925 38.4125V30.275L45.88 22.75C46.25 22.4 46.25 21.875 45.88 21.525C45.51 21.175 44.955 21.175 44.585 21.525L37.925 27.825V15.925C37.925 15.4 37.555 15.05 37 15.05C36.445 15.05 36.075 15.4 36.075 15.925V27.825L29.415 21.525C29.045 21.175 28.49 21.175 28.12 21.525C27.75 21.875 27.75 22.4 28.12 22.75L36.075 30.275V38.4125C25.8075 37.975 17.575 29.925 17.575 20.125V20.125Z" fill="#FCB64F" stroke="#FCB64F"/>
</g>
<defs>
<clipPath id="clip0_770_172">
<rect width="74" height="70" fill="white"/>
</clipPath>
</defs>
</svg>
