<?xml version="1.0" encoding="UTF-8"?><svg id="a" xmlns="http://www.w3.org/2000/svg" viewBox="0 0 648 288"><defs><style>.b{fill:#005251;}.c{fill:#26d780;}</style></defs><g><g><g><path class="b" d="M324.23,138.55l-1.64-5.8h-16.94l-1.64,5.8h-11.68l16.18-47.8h11.13l16.25,47.8h-11.68Zm-16.12-14.48h12.02l-6.01-21.24-6.01,21.24Z"/><path class="b" d="M339.8,138.55v-32.91h10.45v4.78c.73-1.68,1.92-3.05,3.59-4.1,1.66-1.05,3.61-1.57,5.84-1.57,5.19,0,8.63,2.03,10.31,6.08,.91-1.82,2.3-3.29,4.17-4.4,1.87-1.12,3.98-1.67,6.35-1.67,7.78,0,11.68,4.46,11.68,13.38v20.42h-10.52v-18.51c0-4.32-1.64-6.49-4.92-6.49-3.69,0-5.53,2.69-5.53,8.06v16.94h-10.52v-18.57c0-4.28-1.62-6.42-4.85-6.42-1.82,0-3.21,.6-4.17,1.81-.96,1.21-1.43,3.29-1.43,6.25v16.94h-10.45Z"/><path class="b" d="M431.71,120.38c0,1.37-.09,2.89-.27,4.58h-24.31c.09,2.14,.82,3.8,2.19,4.99,1.37,1.18,3.21,1.78,5.53,1.78,3.19,0,5.24-1.02,6.15-3.07h10.24c-.5,3.23-2.27,5.86-5.29,7.89-3.03,2.02-6.73,3.04-11.1,3.04-5.6,0-10.02-1.55-13.25-4.64-3.23-3.1-4.85-7.37-4.85-12.84s1.61-9.62,4.85-12.73c3.23-3.12,7.53-4.68,12.9-4.68,5.1,0,9.24,1.46,12.43,4.37,3.18,2.91,4.78,6.69,4.78,11.34Zm-24.58-1.91h14.27c-.05-2.19-.66-3.87-1.84-5.05-1.19-1.18-2.89-1.78-5.12-1.78-2.23,0-4,.63-5.29,1.88-1.3,1.25-1.97,2.9-2.02,4.95Z"/><path class="b" d="M436.63,138.55v-32.91h10.45v6.9c.55-2.37,1.67-4.2,3.38-5.5,1.71-1.3,3.61-1.95,5.7-1.95,1.09,0,2,.09,2.73,.27v9.7c-1.23-.14-2.28-.21-3.14-.21-5.78,0-8.67,3.66-8.67,10.99v12.7h-10.45Z"/><path class="b" d="M473.3,100.85c-1.23,1.23-2.78,1.84-4.64,1.84-1.87,0-3.4-.61-4.61-1.84-1.21-1.23-1.81-2.73-1.81-4.51,0-1.82,.6-3.35,1.81-4.58,1.21-1.23,2.74-1.84,4.61-1.84,1.87,0,3.41,.63,4.64,1.88,1.23,1.25,1.84,2.77,1.84,4.54,0,1.78-.62,3.28-1.84,4.51Zm-9.9,37.69v-32.91h10.45v32.91h-10.45Z"/><path class="b" d="M496.38,139.57c-5.37,0-9.65-1.61-12.84-4.81-3.19-3.21-4.78-7.43-4.78-12.67,0-5.23,1.59-9.45,4.78-12.63,3.19-3.19,7.47-4.78,12.84-4.78,4.87,0,8.83,1.21,11.88,3.62,3.05,2.41,4.78,5.69,5.19,9.83h-10.45c-.77-3.1-2.96-4.64-6.55-4.64-2.28,0-4.05,.75-5.33,2.25s-1.91,3.62-1.91,6.35c0,2.73,.64,4.85,1.91,6.35,1.27,1.5,3.05,2.25,5.33,2.25,3.59,0,5.78-1.46,6.55-4.37h10.45c-.41,4.05-2.14,7.27-5.19,9.66-3.05,2.39-7.01,3.59-11.88,3.59Z"/><path class="b" d="M532.3,139.44c-4.78,0-8.56-1.62-11.34-4.85-2.78-3.23-4.17-7.4-4.17-12.5,0-5.01,1.43-9.15,4.3-12.43,2.87-3.28,6.65-4.92,11.33-4.92,2.32,0,4.39,.5,6.21,1.5,1.82,1,3.19,2.37,4.1,4.1v-4.71h10.38v32.91h-10.38v-4.64c-.91,1.64-2.31,2.97-4.2,4-1.89,1.02-3.97,1.54-6.25,1.54Zm3-8.67c2.5,0,4.44-.82,5.8-2.46,1.37-1.64,2.05-3.71,2.05-6.21,0-2.46-.68-4.51-2.05-6.15-1.37-1.64-3.3-2.46-5.8-2.46-2.37,0-4.27,.8-5.7,2.39-1.43,1.59-2.15,3.66-2.15,6.21,0,2.55,.72,4.63,2.15,6.25,1.43,1.62,3.33,2.42,5.7,2.42Z"/><path class="b" d="M560.7,138.55v-32.91h10.45v4.78c1.96-3.78,5.51-5.67,10.65-5.67,8.01,0,12.02,4.48,12.02,13.45v20.35h-10.52v-16.94c0-2.82-.44-4.87-1.33-6.15-.89-1.27-2.38-1.91-4.47-1.91-4.23,0-6.35,2.59-6.35,7.78v17.21h-10.45Z"/></g><path class="b" d="M296.3,202.44v-47.8h29.23v9.29h-18.16v12.91h18.16v9.08h-18.16v16.53h-11.06Z"/><path class="b" d="M360.93,198.55c-3.3,3.28-7.73,4.92-13.28,4.92s-9.99-1.64-13.32-4.92c-3.32-3.28-4.98-7.47-4.98-12.57,0-5.1,1.66-9.27,4.98-12.53,3.32-3.25,7.76-4.88,13.32-4.88,5.55,0,9.98,1.63,13.28,4.88,3.3,3.26,4.95,7.43,4.95,12.53,0,5.1-1.65,9.29-4.95,12.57Zm-13.28-3.96c2.41,0,4.32-.8,5.74-2.39,1.41-1.59,2.12-3.66,2.12-6.21,0-2.55-.71-4.62-2.12-6.21-1.41-1.59-3.32-2.39-5.74-2.39-2.46,0-4.38,.8-5.77,2.39-1.39,1.59-2.08,3.66-2.08,6.21,0,2.55,.69,4.62,2.08,6.21,1.39,1.59,3.31,2.39,5.77,2.39Z"/><path class="b" d="M370.8,202.44v-32.91h10.45v6.9c.55-2.37,1.67-4.2,3.38-5.5,1.71-1.3,3.61-1.95,5.7-1.95,1.09,0,2,.09,2.73,.27v9.7c-1.23-.14-2.28-.21-3.14-.21-5.78,0-8.67,3.66-8.67,10.99v12.7h-10.45Z"/><path class="b" d="M429.73,184.28c0,1.37-.09,2.89-.27,4.58h-24.31c.09,2.14,.82,3.8,2.19,4.99,1.37,1.18,3.21,1.78,5.53,1.78,3.19,0,5.24-1.02,6.15-3.07h10.24c-.5,3.23-2.27,5.86-5.29,7.89-3.03,2.02-6.73,3.04-11.1,3.04-5.6,0-10.02-1.55-13.25-4.64-3.23-3.1-4.85-7.37-4.85-12.84s1.61-9.62,4.85-12.73c3.23-3.12,7.53-4.68,12.9-4.68s9.24,1.46,12.43,4.37c3.18,2.91,4.78,6.69,4.78,11.34Zm-24.58-1.91h14.27c-.05-2.19-.66-3.87-1.84-5.05-1.19-1.18-2.89-1.78-5.12-1.78-2.23,0-4,.63-5.29,1.88-1.3,1.25-1.97,2.9-2.02,4.95Z"/><path class="b" d="M449.71,203.46c-4.73,0-8.51-1.02-11.33-3.07-2.82-2.05-4.23-4.67-4.23-7.85h10.38c0,1.14,.5,2.07,1.5,2.8,1,.73,2.3,1.09,3.89,1.09,1.14,0,2.06-.27,2.77-.82,.71-.55,1.06-1.3,1.06-2.25,0-1.5-.8-2.43-2.39-2.8l-8.06-2.05c-2.69-.68-4.73-1.84-6.15-3.48-1.41-1.64-2.12-3.64-2.12-6.01,0-3.1,1.27-5.61,3.82-7.55,2.55-1.93,5.96-2.9,10.24-2.9,4.73,0,8.37,.91,10.89,2.73,2.53,1.82,3.79,4.33,3.79,7.51h-10.31c0-1.14-.4-2.03-1.2-2.66-.8-.64-1.9-.96-3.31-.96-1.14,0-2.05,.25-2.73,.75-.68,.5-1.02,1.16-1.02,1.98,0,1.46,.93,2.44,2.8,2.94l7.78,2.12c2.6,.68,4.63,1.81,6.11,3.38,1.48,1.57,2.22,3.49,2.22,5.77,0,3.41-1.29,6.16-3.86,8.23-2.57,2.07-6.09,3.11-10.55,3.11Z"/><path class="b" d="M488.05,194.31c1.46,0,2.66-.07,3.62-.21v8.33c-2,.36-4.33,.55-6.96,.55-1.18,0-2.23-.07-3.14-.21-.91-.14-1.94-.44-3.07-.92-1.14-.48-2.07-1.13-2.8-1.95-.73-.82-1.36-2-1.88-3.55-.52-1.55-.79-3.37-.79-5.46v-13.11h-5.19v-8.26h5.19v-9.77h10.45v9.77h7.44v8.26h-7.44v10.93c0,2.23,.39,3.72,1.16,4.47,.77,.75,1.91,1.13,3.41,1.13Z"/><path class="b" d="M511.31,203.46c-4.73,0-8.51-1.02-11.33-3.07-2.82-2.05-4.23-4.67-4.23-7.85h10.38c0,1.14,.5,2.07,1.5,2.8,1,.73,2.3,1.09,3.89,1.09,1.14,0,2.06-.27,2.77-.82,.71-.55,1.06-1.3,1.06-2.25,0-1.5-.8-2.43-2.39-2.8l-8.06-2.05c-2.69-.68-4.73-1.84-6.15-3.48-1.41-1.64-2.12-3.64-2.12-6.01,0-3.1,1.27-5.61,3.82-7.55,2.55-1.93,5.96-2.9,10.24-2.9,4.73,0,8.37,.91,10.89,2.73,2.53,1.82,3.79,4.33,3.79,7.51h-10.31c0-1.14-.4-2.03-1.2-2.66-.8-.64-1.9-.96-3.31-.96-1.14,0-2.05,.25-2.73,.75-.68,.5-1.02,1.16-1.02,1.98,0,1.46,.93,2.44,2.8,2.94l7.78,2.12c2.6,.68,4.63,1.81,6.11,3.38,1.48,1.57,2.22,3.49,2.22,5.77,0,3.41-1.29,6.16-3.86,8.23-2.57,2.07-6.09,3.11-10.55,3.11Z"/></g><g><path class="b" d="M532.69,170.98v-7.21h-2.47v-1.32h6.36v1.32h-2.48v7.21h-1.4Z"/><path class="b" d="M537.76,170.98v-8.53h1.34l2.73,6.53,2.72-6.53h1.34v8.53h-1.34v-5.64l-2.19,5.64h-1.06l-2.19-5.7v5.7h-1.34Z"/></g></g><g><path class="c" d="M139.8,55.34c-4.13,17.42-14.57,35.32-34.33,35.32l-35.95-.03v15.96h37.22c9.33,0,15.57-2.07,22.19-8.27-.18,13.52-9.96,24.27-23.52,24.27h-35.89v15.96h35.89c9.33,0,17.16-2.18,23.52-8.27-.18,13.52-9.96,24.27-23.52,24.27h-35.89v15.96h35.89c9.33,0,16.9-1.78,23.52-8.27-.19,13.51-9.96,24.24-23.52,24.24h-35.89v15.96h40.75c13.44,0,24.1-8.43,29.52-18.37V55.34Z"/><path class="b" d="M139.8,55.34c4.13,17.42,14.57,35.32,34.33,35.32l90.4-.03v15.96h-91.66c-9.33,0-15.57-2.07-22.19-8.27,.18,13.52,9.96,24.27,23.52,24.27h90.33v15.96h-90.33c-9.33,0-17.16-2.18-23.52-8.27,.18,13.52,9.96,24.27,23.52,24.27h90.33v15.96h-90.33c-9.33,0-16.9-1.78-23.52-8.27,.19,13.51,9.96,24.24,23.52,24.24h90.33v15.96h-95.19c-13.44,0-24.1-8.43-29.52-18.37V55.34Z"/></g></svg>