<svg width="65" height="59" xmlns="http://www.w3.org/2000/svg" xmlns:xlink="http://www.w3.org/1999/xlink"><defs><filter color-interpolation-filters="auto" id="a"><feColorMatrix in="SourceGraphic" values="0 0 0 0 1.000000 0 0 0 0 0.701961 0 0 0 0 0.188235 0 0 0 1.000000 0"/></filter><path id="b" d="M0 0h54.46v59H0z"/></defs><g transform="translate(-668 -1444)" filter="url(#a)" fill="none" fill-rule="evenodd"><g transform="translate(678.54 1444)"><mask id="c" fill="#fff"><use xlink:href="#b"/></mask><path d="M49.256 6.112C42.026-1.55 30.04-2.078 22.17 4.92a.207.207 0 01-.273 0A19.43 19.43 0 000 2.199a3.041 3.041 0 011.107 1.72 17.401 17.401 0 0119.448 2.527 2.234 2.234 0 002.958 0C30.566.174 41.307.647 47.787 7.514a17.346 17.346 0 014.049 16.416H42.52a1.832 1.832 0 01-.286-.406L40.5 19.53a1.477 1.477 0 00-2.717.001l-2.926 7.988-2.143-11.502a1.518 1.518 0 00-1.434-1.238 1.537 1.537 0 00-1.498 1.184l-1.848 7.678c-.1.125-.227.223-.372.29h-7.135c.183.667.322 1.346.415 2.033h6.77a2.662 2.662 0 002.28-1.788l1.284-5.339L33.22 29.81a1.49 1.49 0 002.863.266l3.102-8.478 1.2 2.76c.03.066.756 1.607 1.934 1.607h8.841a17.822 17.822 0 01-3.988 6.058L22.188 56.914a.22.22 0 01-.31 0L5.94 41.033a22.351 22.351 0 01-3.664-.783l18.172 18.105c.883.859 2.287.859 3.172 0l24.982-24.892c7.547-7.518 7.84-19.789.654-27.352" fill="#000" mask="url(#c)"/></g><path d="M673.893 1474.781a18.956 18.956 0 01-3.339-15.767c.73-3.336 2.434-5.714 4.944-8.076.545 5.6 6.949 7.837 11.388 9.73 7.448 3.178 10.062 8.247 8.228 15.954a14.63 14.63 0 01-.93 2.52c-1.902-1.063-6.317-3.773-8.952-7.328a1.028 1.028 0 00-1.432-.214c-.454.333-.55.966-.218 1.418 2.517 3.395 6.384 6.008 8.691 7.377-.094.026-.19.057-.283.081-5.604 1.453-13.659.29-18.097-5.695m18.615 7.661c.632-.164 1.27-.364 1.953-.613.029-.011.056-.03.084-.043a5.46 5.46 0 012.15 4.352 1.02 1.02 0 001.03 1.011 1.02 1.02 0 001.018-1.021 7.39 7.39 0 00-2.838-5.862c.516-1.013.92-2.078 1.202-3.177 2.046-8.597-1.12-14.75-9.413-18.288-4.163-1.776-11.287-4.215-10.016-10.048a1.017 1.017 0 00-.786-1.208 1.03 1.03 0 00-.875.217c-3.852 3.227-6.444 6.162-7.465 10.82a20.925 20.925 0 003.691 17.403c3.338 4.502 9.125 7.108 15.132 7.108a20.456 20.456 0 005.133-.651" fill="#000"/></g></svg>