<svg width="190" height="164" viewBox="0 0 190 164" fill="none" xmlns="http://www.w3.org/2000/svg">
<g clip-path="url(#clip0)">
<path opacity="0.6" fill-rule="evenodd" clip-rule="evenodd" d="M136.386 34.3167L117.471 48.0861L122.048 54.3635L140.841 40.4375L136.386 34.3167ZM136.092 33.9125L117.176 47.6821L112.387 41.1134L131.311 27.3433L136.092 33.9125ZM136.791 34.0224L161.504 16.032L161.21 15.6278L136.496 33.6182L131.715 27.0491L154.137 10.734L153.843 10.3297L131.421 26.6449L127.488 21.2413L135.874 15.1255L135.579 14.7215L127.194 20.837L122.09 13.8248L121.686 14.119L126.79 21.1317L107.875 34.9257L102.884 28.081L120.865 14.9854L120.571 14.5813L102.59 27.677L97.7396 21.0255L107.377 14.0246L107.083 13.6201L88.8517 26.8636L90.212 14.5825L89.9578 14.5544L93.8686 11.7033L93.574 11.2993L89.221 14.4728L88.9696 14.4449L88.9442 14.6745L72.4241 26.718L68.4104 21.2865L77.2292 14.8584L76.9347 14.4544L68.1132 20.8843L62.2127 12.8996L61.6095 13.3453L67.5071 21.3261L48.4295 35.2317L42.7026 27.3853L58.6374 15.7668L58.1955 15.1608L53.9831 18.2322L24.3775 21.362L22.1534 1.19717L21.6564 1.25199L23.8803 21.4145L8.9677 22.991L7.63801 11.501L7.14131 11.5584L8.47044 23.0436L-0.624867 24.0051L-0.572297 24.5023L8.52792 23.5403L9.43869 31.4105L-1.2337 32.5483L-1.18069 33.0455L9.49618 31.9072L10.3722 39.4767L-10.2995 41.6702L-10.2468 42.1674L10.4296 39.9734L11.2988 47.4839L-24.4772 51.2982L-24.4242 51.7953L11.3563 47.9806L11.4984 49.2089L0.248349 57.4116L-0.00728268 57.3596L-0.064183 57.6395L-15.2836 68.7364L-14.8418 69.3424L-0.124205 58.6114L12.7603 61.2309L-0.732581 71.0658L-0.438069 71.4698L9.62132 64.1376L13.6569 69.5604L-0.629697 79.9756L-0.33515 80.3796L13.9554 69.9615L19.4171 77.3008L0.243408 91.2286L-9.45305 78.2169L-9.85397 78.5157L-0.161157 91.5225L-1.91509 92.7965L-1.62124 93.2011L0.137637 91.9234L5.14708 98.6456L-2.71852 104.374L-2.42416 104.778L5.44587 99.0466L10.5532 105.9L-3.45659 116.117L-3.16198 116.521L10.852 106.301L14.7542 111.537L-4.02199 125.2L-7.54079 120.433L-7.94306 120.73L0.715561 132.459L-4.42582 136.202L-4.13156 136.606L1.01253 132.862L5.9612 139.565L-7.79607 149.616L-7.05866 150.626L3.46844 142.935L8.18301 142.868L8.17758 151.136L-7.16232 151.356L-7.14975 151.848L8.17725 151.629L8.1716 160.213L-7.79446 160.441L-7.78189 160.934L8.17128 160.706L8.16159 175.437L8.66159 175.437L8.67128 160.699L32.9883 160.351L33.265 176.328L33.7649 176.32L33.4882 160.344L53.3871 160.059L53.692 180.468L54.1919 180.461L54.1264 176.08L67.8414 175.959L67.891 179.938L68.391 179.932L68.3414 175.955L84.0441 175.817L84.1435 180.705L85.3932 180.679L85.2941 175.806L108.048 175.606L107.875 181.951L108.625 181.972L108.798 175.6L126.862 175.441L126.92 181.217L127.42 181.212L127.362 175.437L148.34 175.252L148.386 183.405L148.886 183.402L148.84 175.248L151.345 175.226L151.341 174.726L148.837 174.748L148.799 167.901L159.834 167.804L159.83 167.304L148.796 167.401L148.748 158.696L165.374 158.459L165.362 157.966L148.745 158.203L148.697 149.62L166.006 149.373L165.994 148.88L148.695 149.128L148.649 140.88L161.023 140.705L161.016 140.205L148.646 140.38L148.603 132.613L161.583 132.47L161.577 131.97L148.6 132.113L148.555 124.089L161.263 123.997L161.259 123.497L148.552 123.589L148.516 117.16L165.64 117.039L165.636 116.539L148.514 116.66L148.477 110.072L149.015 110.266C149.025 110.27 149.036 110.274 149.046 110.277L161.99 114.186L162.352 112.989L149.424 109.085L149.044 108.948L163.041 108.864L163.031 108.374L148.468 108.461L148.424 100.569L163.959 100.483L163.949 99.993L148.421 100.079L148.337 85.04L174.017 84.929L173.984 84.4717L148.335 84.5826L148.287 75.9388L167.556 75.9104L167.527 75.1992L137.273 75.2437L137.101 75.0079L156.062 61.3503L165.158 73.8467L165.562 73.5525L156.468 61.0581L163.688 55.8575L163.396 55.4518L156.174 60.6538L151.517 54.2555L172.898 38.7211L172.604 38.3166L151.223 53.8512L146.915 47.9327L166.459 33.7641L166.165 33.3593L146.621 47.5284L141.979 41.1505L164.112 24.7495L163.368 23.7452L141.243 40.1398L136.791 34.0224ZM148.337 174.752L148.299 167.906L127.288 168.09L127.357 174.937L148.337 174.752ZM126.857 174.941L126.788 168.095L108.998 168.251L108.812 175.099L126.857 174.941ZM108.061 175.106L108.248 168.257L85.1447 168.46L85.2839 175.306L108.061 175.106ZM84.0339 175.317L83.8947 168.471L68.2498 168.609L68.3352 175.455L84.0339 175.317ZM67.8352 175.459L67.6406 159.856L53.887 160.052L54.119 175.58L67.8352 175.459ZM83.8845 167.971L68.2436 168.109L68.1406 159.848L83.7148 159.626L83.8845 167.971ZM108.261 167.757L85.1346 167.96L84.9647 159.608L108.492 159.272L108.261 167.757ZM126.783 167.595L109.012 167.751L109.243 159.261L126.697 159.011L126.783 167.595ZM148.296 167.406L127.283 167.59L127.197 159.004L148.248 158.703L148.296 167.406ZM147.787 75.9395L147.835 84.5847L126.45 84.6772L126.363 75.9711L147.787 75.9395ZM147.837 85.0422L126.455 85.1346L126.529 92.5057L147.878 92.2883L147.837 85.0422ZM125.863 75.9718L125.95 84.6794L103.348 84.7771L102.353 76.0064L125.863 75.9718ZM125.955 85.1368L103.4 85.2343L103.889 89.5447C103.893 89.5799 103.892 89.6154 103.886 89.6503L103.407 92.4516L124.868 100.209L126.106 100.202L125.955 85.1368ZM101.598 76.0075L102.594 84.7803L83.4447 84.8631L83.4375 84.5095L85.3989 83.0766L85.4022 83.0741L94.9254 76.0174L101.598 76.0075ZM102.646 85.2376L83.6764 85.3196L102.691 92.1926L103.138 89.5764L102.646 85.2376ZM147.881 92.7883L147.921 100.082L126.606 100.199L126.534 93.0057L147.881 92.7883ZM147.924 100.572L126.611 100.689L126.613 100.84L147.711 108.466L147.968 108.464L147.924 100.572ZM102.409 100.333L121.246 100.229L103.193 93.7034L102.352 98.6188L102.409 100.333ZM122.582 100.712L102.426 100.823L102.689 108.735L126.19 108.595L126.124 101.992L122.582 100.712ZM101.602 98.6056L101.659 100.337L83.7614 100.436L83.612 93.0892L101.481 93.0847L102.477 93.4444L101.607 98.5299C101.602 98.5549 101.601 98.5803 101.602 98.6056ZM100.099 92.585L83.4796 86.5776L83.6018 92.5892L100.099 92.585ZM82.3516 92.5896L82.2201 86.1223L81.5577 85.8829L72.3745 92.5921L82.3516 92.5896ZM71.6899 93.0923L67.3476 96.2648L67.4007 100.527L82.5113 100.443L82.3617 93.0896L71.6899 93.0923ZM101.675 100.827L83.7714 100.926L83.9324 108.847L101.938 108.74L101.675 100.827ZM82.5212 100.933L67.4068 101.017L67.5057 108.945L82.6823 108.855L82.5212 100.933ZM66.852 96.6268L66.9007 100.529L61.4691 100.56L66.852 96.6268ZM66.9068 101.019L60.7934 101.053L53.0897 106.681L53.1248 109.031L67.0057 108.948L66.9068 101.019ZM8.6716 160.206L32.9797 159.858L32.8311 151.277L8.67724 151.622L8.6716 160.206ZM8.67756 151.129L32.8226 150.784L32.6794 142.521L8.68301 142.861L8.67756 151.129ZM8.68333 142.361L32.6708 142.021L32.53 133.892L15.5899 134.079L8.68547 139.123L8.68333 142.361ZM8.18523 139.488L4.1664 142.425L8.18334 142.368L8.18523 139.488ZM33.3225 150.777L33.1794 142.514L53.1207 142.232L53.2441 150.492L33.3225 150.777ZM33.4797 159.851L33.331 151.27L53.2515 150.985L53.3797 159.567L33.4797 159.851ZM33.0299 133.886L33.1707 142.014L53.1133 141.732L52.9928 133.667L33.0299 133.886ZM52.9853 133.167L33.0213 133.387L32.8747 124.924L52.86 124.78L52.9853 133.167ZM32.5213 133.392L32.3747 124.928L28.0729 124.959L16.2848 133.571L32.5213 133.392ZM52.8526 124.28L32.866 124.424L32.8153 121.494L37.6791 117.94L52.7563 117.834L52.8526 124.28ZM32.366 124.428L32.3215 121.855L28.7641 124.454L32.366 124.428ZM68.1344 159.356L83.7048 159.133L83.5303 150.552L68.0274 150.774L68.1344 159.356ZM68.0212 150.281L83.5203 150.059L83.3524 141.804L67.9182 142.022L68.0212 150.281ZM67.4183 142.029L67.5213 150.288L53.7441 150.485L53.6207 142.225L67.4183 142.029ZM67.912 141.522L83.3422 141.304L83.1801 133.334L67.812 133.503L67.912 141.522ZM67.312 133.509L67.412 141.529L53.6132 141.725L53.4928 133.661L67.312 133.509ZM67.8057 133.003L83.17 132.834L83.0018 124.562L67.7018 124.673L67.8057 133.003ZM67.2019 124.676L67.3058 133.009L53.4853 133.161L53.36 124.776L67.2019 124.676ZM67.6956 124.173L82.9916 124.062L82.8606 117.622L67.6153 117.73L67.6956 124.173ZM67.1153 117.733L67.1956 124.176L53.3526 124.276L53.2563 117.831L67.1153 117.733ZM67.609 117.23L82.8505 117.122L82.6923 109.345L67.5118 109.435L67.609 117.23ZM67.0118 109.438L67.109 117.233L53.2488 117.331L53.1321 109.521L67.0118 109.438ZM67.5274 150.781L67.6344 159.363L53.8797 159.56L53.7514 150.978L67.5274 150.781ZM148.197 149.628L148.245 158.211L127.192 158.512L127.106 149.929L148.197 149.628ZM148.149 140.887L148.195 149.135L127.101 149.436L127.018 141.186L148.149 140.887ZM148.103 132.619L148.146 140.387L127.013 140.686L126.934 132.852L148.103 132.619ZM148.055 124.093L148.1 132.119L126.929 132.352L126.848 124.246L148.055 124.093ZM148.016 117.164L148.052 123.593L126.843 123.746L126.778 117.313L148.016 117.164ZM147.976 109.891L148.014 116.664L126.773 116.813L126.695 109.081L145.427 108.969L147.976 109.891ZM126.69 108.592L144.093 108.487L126.626 102.174L126.69 108.592ZM126.195 109.084L102.705 109.225L102.963 116.981L126.273 116.817L126.195 109.084ZM126.278 117.317L102.979 117.481L103.193 123.916L126.343 123.749L126.278 117.317ZM126.348 124.249L103.21 124.416L103.482 132.61L126.429 132.357L126.348 124.249ZM126.434 132.857L103.499 133.11L103.661 137.999L104.496 141.005L126.513 140.693L126.434 132.857ZM126.518 141.193L104.635 141.503L106.92 149.725L126.601 149.444L126.518 141.193ZM126.606 149.936L107.056 150.216L109.257 158.134C109.267 158.17 109.272 158.208 109.271 158.245L109.256 158.768L126.692 158.519L126.606 149.936ZM101.955 109.229L83.9424 109.337L84.1005 117.114L102.212 116.986L101.955 109.229ZM52.7488 117.334L52.595 107.043L38.3702 117.435L52.7488 117.334ZM84.1107 117.613L102.229 117.486L102.443 123.922L84.2417 124.053L84.1107 117.613ZM102.459 124.422L84.2518 124.553L84.4199 132.82L102.732 132.618L102.459 124.422ZM11.256 106.006L15.1585 111.243L34.3072 97.3096L30.3932 92.0501L11.256 106.006ZM30.7972 91.7555L34.7115 97.0154L53.4402 83.3875L49.5387 78.0878L30.7972 91.7555ZM49.9426 77.7932L53.8445 83.0933L60.4809 78.2644L53.003 75.5613L49.9426 77.7932ZM52.4356 75.3563L49.6462 77.3905L46.5942 73.2448L52.4356 75.3563ZM54.2216 74.6727L61.7013 77.3763L72.7196 69.3589L68.8248 64.0228L54.2216 74.6727ZM68.5301 63.619L53.6542 74.4676L45.2609 71.4337L44.5972 70.5321L63.5179 56.752L68.5301 63.619ZM69.2288 63.7282L73.1239 69.0647L83.7785 61.3119L84.7659 52.3974L69.2288 63.7282ZM84.8404 51.7242L68.934 63.3244L63.9221 56.4576L83.1303 42.468L85.5091 45.6872L84.8404 51.7242ZM86.134 51.3997L85.1464 60.3165L92.4126 55.0293L88.471 49.6954L86.134 51.3997ZM88.1739 49.2932L86.2086 50.7264L86.6028 47.1673L88.1739 49.2932ZM89.077 49.2534L93.019 54.588L111.688 41.0036L107.766 35.6243L89.077 49.2534ZM107.471 35.2203L88.7799 48.8513L86.7244 46.0698L87.4737 39.3046L102.48 28.3754L107.471 35.2203ZM108.17 35.3297L112.092 40.7094L131.017 26.9391L127.084 21.5359L108.17 35.3297ZM49.2422 77.6851L40.3457 84.1731L35.336 77.2772L42.7704 71.8626L45.7482 72.939L49.2422 77.6851ZM39.9417 84.4677L30.4987 91.3543L25.4052 84.5099L34.9318 77.5715L39.9417 84.4677ZM30.0947 91.649L10.9572 105.605L5.85006 98.7522L25.001 84.8043L30.0947 91.649ZM11.9626 48.8704L11.8535 47.9275L13.4959 47.7524L11.9626 48.8704ZM11.796 47.4308L14.3037 47.1635L25.7961 38.7841L25.748 38.348L10.9269 39.9207L11.796 47.4308ZM26.2452 38.2952L26.2617 38.4446L26.5043 38.2677L26.2452 38.2952ZM27.3113 37.6793L26.1904 37.7982L25.3541 30.2165L39.6348 28.6939L27.3113 37.6793ZM25.6932 37.851L10.8694 39.4239L9.99338 31.8542L24.8569 30.2695L25.6932 37.851ZM9.02518 23.4877L23.9351 21.9115L24.8021 29.7725L9.93591 31.3575L9.02518 23.4877ZM24.4323 21.859L25.2993 29.7195L40.4426 28.1049L53.1765 18.8203L24.4323 21.859ZM141.577 41.4482L122.785 55.3735L127.285 61.5459L146.216 47.8219L141.577 41.4482ZM146.51 48.2262L127.58 61.9499L131.907 67.885L150.818 54.1451L146.51 48.2262ZM151.112 54.5494L132.202 68.289L136.806 74.6039L155.768 60.946L151.112 54.5494ZM111.982 41.4076L116.772 47.9764L98.1504 61.532L93.3162 54.9901L111.982 41.4076ZM97.3351 21.3193L102.185 27.9714L87.5483 38.6318L88.7773 27.5357L97.3351 21.3193ZM121.646 54.6611L117.067 48.3804L98.4476 61.9341L101.115 65.5431C101.154 65.596 101.178 65.6583 101.186 65.7236L101.615 69.5047L121.646 54.6611ZM101.778 70.9398L122.383 55.6712L126.88 61.8394L108.332 75.2863L102.272 75.2953L101.778 70.9398ZM109.185 75.2851L127.175 62.2434L131.503 68.1789L121.748 75.2666L109.185 75.2851ZM122.6 75.2653L131.797 68.5829L136.401 74.8961L135.915 75.2457L122.6 75.2653ZM48.0255 35.5262L42.2985 27.6799L23.2662 41.5569L29.0231 49.3769L48.0255 35.5262ZM48.3203 35.9301L52.303 41.3867L33.3257 55.2214L29.3196 49.7796L48.3203 35.9301ZM52.707 41.0921L48.7243 35.6356L67.8043 21.7282L71.818 27.1598L52.707 41.0921ZM52.5977 41.7905L33.6222 55.6241L39.0704 63.0247L58.0392 49.2458L52.5977 41.7905ZM58.4438 48.9519L53.0018 41.496L72.1152 27.562L77.6253 35.0185L58.4438 48.9519ZM58.334 49.6497L39.3668 63.4274L44.3008 70.1295L63.2231 56.3481L58.334 49.6497ZM63.6273 56.0537L58.7386 49.3558L77.9225 35.4206L82.8331 42.0659L63.6273 56.0537ZM73.0143 69.7628L62.2691 77.5816L71.5127 80.9228L77.8126 76.3368L73.0143 69.7628ZM78.2169 76.0425L73.4186 69.4686L83.704 61.9844L82.4915 72.9308L78.2169 76.0425ZM78.1074 76.7407L72.0804 81.128L81.3573 84.4813L82.1746 83.8842L82.1417 82.2679L78.1074 76.7407ZM82.1239 81.3955L78.5117 76.4464L82.417 73.6035L82.04 77.0073C82.037 77.0343 82.0358 77.0615 82.0364 77.0888L82.1239 81.3955ZM1.2438 57.614L22.8621 41.8515L28.6191 49.6715L14.1286 60.2335L1.2438 57.614ZM14.7448 60.4031L28.9155 50.0741L32.9217 55.516L22.4149 63.1756L14.7448 60.4031ZM22.9823 63.3807L33.2181 55.9186L38.6658 63.3186L33.3976 67.1455L22.9823 63.3807ZM33.9656 67.3508L38.9623 63.7213L43.8966 70.4238L43.4225 70.7692L33.9656 67.3508ZM43.9901 70.9743L44.193 70.8265L44.4149 71.1279L43.9901 70.9743ZM35.0101 97.4166L53.7367 83.7902L58.5647 90.3483L39.8748 103.954L35.0101 97.4166ZM54.141 83.496L58.9689 90.054L70.2926 81.811L61.0487 78.4696L54.141 83.496ZM40.1733 104.355L58.8611 90.751L63.7276 97.3614L45.0979 110.972L40.1733 104.355ZM59.2653 90.4567L64.1313 97.0665L80.1401 85.3705L70.8603 82.0162L59.2653 90.4567ZM-3.72503 125.602L1.11982 132.165L19.9249 118.476L15.053 111.938L-3.72503 125.602ZM1.41679 132.567L6.36494 139.27L25.1782 125.525L20.2237 118.877L1.41679 132.567ZM44.6941 111.267L25.5819 125.23L20.6279 118.583L39.769 104.649L44.6941 111.267ZM39.4705 104.248L20.3291 118.182L15.4573 111.644L34.6057 97.7108L39.4705 104.248ZM24.7025 84.4032L5.55126 98.3512L0.542202 91.6296L19.7157 77.702L24.7025 84.4032ZM42.2028 71.6574L25.1067 84.1088L20.1202 77.4081L32.7438 68.2383L42.2028 71.6574ZM32.1758 68.033L19.8217 77.007L14.3594 69.667L21.7635 64.2693L32.1758 68.033ZM21.196 64.0642L14.0609 69.2658L10.0254 63.843L13.424 61.3658L14.1257 61.5085L21.196 64.0642ZM78.2321 34.5777L72.7212 27.1201L88.8696 15.3477L87.484 27.8571L78.2321 34.5777ZM87.4096 28.5292L78.5293 34.9798L83.4394 41.6244L86.1802 39.6281L87.4096 28.5292ZM85.6307 44.5897L83.7365 42.0265L86.1057 40.301L85.6307 44.5897ZM85.0719 60.9891L92.7098 55.4314L97.5441 61.9734L83.8595 71.935L85.0719 60.9891ZM97.8412 62.3755L83.785 72.6077L83.2869 77.1043L83.4065 82.9841L84.658 82.0697L84.6614 82.0672L100.918 70.0207L100.452 65.908L97.8412 62.3755ZM101.081 71.4557L101.517 75.2964L95.8872 75.3047L101.081 71.4557ZM102.748 133.118L84.4301 133.32L84.5921 141.286L103.721 141.016L102.926 138.157C102.919 138.128 102.914 138.099 102.913 138.069L102.748 133.118ZM103.859 141.514L84.6023 141.786L84.7702 150.041L106.145 149.736L103.859 141.514ZM106.281 150.227L84.7802 150.534L84.9547 159.115L108.506 158.779L108.519 158.281L106.281 150.227Z" fill="#333333"/>
<g style="mix-blend-mode:multiply" opacity="0.3">
<path d="M102.975 118.169C102.837 112.965 98.5479 108.835 93.3423 108.894L91.8722 108.911C87.4998 108.96 83.8917 105.502 83.7563 101.131C83.6161 96.6018 87.2496 92.854 91.781 92.854H100.098C101.839 92.854 103.568 93.1366 105.219 93.6908L113.741 96.5519C121.182 99.0504 126.226 105.987 126.307 113.837L126.387 121.55C126.449 127.575 131.424 132.388 137.448 132.251C143.517 132.113 148.51 136.995 148.51 143.065V150.048C148.51 159.677 140.79 167.527 131.162 167.688L117.675 167.913C112.768 167.995 108.747 164.04 108.747 159.133C108.747 158.381 108.65 157.632 108.459 156.904L104.279 140.968C103.761 138.996 103.473 136.971 103.419 134.933L102.975 118.169Z" fill="#9CCB3D"/>
<path d="M12.9422 60.5436C8.00365 59.6485 6.53513 53.2778 10.5836 50.3111L43.5943 26.121C53.645 18.7559 67.7561 20.885 75.1864 30.8875L81.453 39.3236C85.4672 44.7275 84.3339 52.3635 78.9232 56.3686L76.1925 58.3899C72.2159 61.3335 66.5978 60.4407 63.7296 56.4094C60.8734 52.395 55.2868 51.49 51.3094 54.3974L41.9107 61.2677C36.5155 65.2115 29.5268 66.2524 23.2164 64.0522L13.8046 60.7706C13.5235 60.6726 13.2352 60.5967 12.9422 60.5436Z" fill="#9CCB3D"/>
<path d="M8.74594 143.091C8.74594 140.518 9.96571 138.097 12.0337 136.566L12.8675 135.949C14.5793 134.682 16.6455 133.983 18.775 133.953L66.9117 133.255C76.6111 133.114 84.5746 140.889 84.6663 150.589L84.7522 159.677C84.7969 164.402 80.9789 168.257 76.2536 168.257H71.9767C69.645 168.257 67.7547 166.366 67.7547 164.035C67.7547 161.703 65.8645 159.813 63.5328 159.813H57.9069C55.3603 159.813 53.2958 157.748 53.2958 155.202C53.2958 152.62 51.1762 150.541 48.595 150.592L17.0219 151.207C12.4775 151.295 8.74594 147.636 8.74594 143.091Z" fill="#9CCB3D"/>
<path d="M40.1088 104.533C37.2061 100.636 38.0201 95.1229 41.9251 92.2311L57.4942 80.7014C59.9057 78.9155 63.059 78.4759 65.8671 79.534C72.4348 82.0088 73.6336 90.7846 67.9703 94.9301L52.3375 106.373C48.4473 109.221 42.9888 108.4 40.1088 104.533Z" fill="#9CCB3D"/>
</g>
</g>
<g filter="url(#filter0_d)">
<path d="M162 50C175.255 50 186 39.2548 186 26C186 12.7452 175.255 2 162 2C148.745 2 138 12.7452 138 26C138 39.2548 148.745 50 162 50Z" fill="#6CC396"/>
<path d="M162 38.452C162.484 38.452 162.88 38.056 162.88 37.572V27.584L165.784 30.488C165.96 30.664 166.18 30.752 166.4 30.752C166.62 30.752 166.84 30.664 167.016 30.488C167.368 30.136 167.368 29.608 167.016 29.256L162.616 24.856C162.264 24.504 161.736 24.504 161.384 24.856L156.984 29.256C156.632 29.608 156.632 30.136 156.984 30.488C157.16 30.664 157.38 30.752 157.6 30.752C157.82 30.752 158.04 30.664 158.216 30.488L161.12 27.584V37.572C161.12 38.056 161.516 38.452 162 38.452Z" fill="white"/>
<path d="M171.636 20.236C171.24 15.264 167.06 11.392 162 11.392C156.676 11.392 152.32 15.748 152.32 21.072C152.32 21.512 152.364 21.952 152.408 22.392C152.32 22.392 152.188 22.392 152.1 22.392C148.58 22.392 145.72 25.252 145.72 28.772C145.72 32.292 148.58 35.152 152.1 35.152H157.6C158.084 35.152 158.48 34.756 158.48 34.272C158.48 33.788 158.084 33.392 157.6 33.392H152.1C149.548 33.392 147.48 31.324 147.48 28.772C147.48 26.22 149.548 24.152 152.1 24.152C152.496 24.152 152.892 24.196 153.288 24.328C153.596 24.416 153.904 24.328 154.124 24.108C154.344 23.888 154.432 23.536 154.344 23.228C154.124 22.524 154.036 21.776 154.036 21.072C154.036 16.716 157.6 13.152 161.956 13.152C166.312 13.152 169.876 16.716 169.876 21.072C169.876 21.556 170.272 21.952 170.756 21.952C173.924 21.952 176.476 24.504 176.476 27.672C176.476 30.84 173.924 33.392 170.756 33.392H166.4C165.916 33.392 165.52 33.788 165.52 34.272C165.52 34.756 165.916 35.152 166.4 35.152H170.8C174.936 35.152 178.28 31.808 178.28 27.672C178.28 23.844 175.376 20.676 171.636 20.236Z" fill="white"/>
</g>
<defs>
<filter id="filter0_d" x="134" y="0" width="56" height="56" filterUnits="userSpaceOnUse" color-interpolation-filters="sRGB">
<feFlood flood-opacity="0" result="BackgroundImageFix"/>
<feColorMatrix in="SourceAlpha" type="matrix" values="0 0 0 0 0 0 0 0 0 0 0 0 0 0 0 0 0 0 127 0"/>
<feOffset dy="2"/>
<feGaussianBlur stdDeviation="2"/>
<feColorMatrix type="matrix" values="0 0 0 0 0 0 0 0 0 0 0 0 0 0 0 0 0 0 0.15 0"/>
<feBlend mode="normal" in2="BackgroundImageFix" result="effect1_dropShadow"/>
<feBlend mode="normal" in="SourceGraphic" in2="effect1_dropShadow" result="shape"/>
</filter>
<clipPath id="clip0">
<rect width="162" height="148" fill="white" transform="translate(0 16)"/>
</clipPath>
</defs>
</svg>
