<svg width="162" height="150" viewBox="0 0 162 150" fill="none" xmlns="http://www.w3.org/2000/svg">
<g opacity="0.15" clip-path="url(#clip0)">
<path fill-rule="evenodd" clip-rule="evenodd" d="M136.386 18.3167L117.471 32.0861L122.048 38.3635L140.841 24.4375L136.386 18.3167ZM136.092 17.9125L117.176 31.6821L112.387 25.1134L131.311 11.3433L136.092 17.9125ZM136.791 18.0224L161.504 0.0320267L161.21 -0.372206L136.496 17.6182L131.715 11.0491L154.137 -5.26597L153.843 -5.67028L131.421 10.6449L127.488 5.24131L135.874 -0.874475L135.579 -1.27846L127.194 4.83705L122.09 -2.17523L121.686 -1.88099L126.79 5.13166L107.875 18.9257L102.884 12.081L120.865 -1.01455L120.571 -1.41872L102.59 11.677L97.7396 5.02547L107.377 -1.97536L107.083 -2.37989L88.8517 10.8636L90.212 -1.41746L89.9578 -1.44562L93.8686 -4.29668L93.574 -4.70071L89.221 -1.52723L88.9696 -1.55507L88.9442 -1.32546L72.4241 10.718L68.4104 5.28647L77.2292 -1.14157L76.9347 -1.54564L68.1132 4.88434L62.2127 -3.10043L61.6095 -2.65471L67.5071 5.32612L48.4295 19.2317L42.7026 11.3853L58.6374 -0.233169L58.1955 -0.839188L53.9831 2.23221L24.3775 5.36198L22.1534 -14.8028L21.6564 -14.748L23.8803 5.41455L8.9677 6.99104L7.63801 -4.49905L7.14131 -4.44157L8.47044 7.04361L-0.624867 8.00512L-0.572297 8.50235L8.52792 7.54031L9.43869 15.4105L-1.2337 16.5483L-1.18069 17.0455L9.49618 15.9072L10.3722 23.4767L-10.2995 25.6702L-10.2468 26.1674L10.4296 23.9734L11.2988 31.4839L-24.4772 35.2982L-24.4242 35.7953L11.3563 31.9806L11.4984 33.2089L0.248349 41.4116L-0.00728268 41.3596L-0.064183 41.6395L-15.2836 52.7364L-14.8418 53.3424L-0.124205 42.6114L12.7603 45.2309L-0.732581 55.0658L-0.438069 55.4698L9.62132 48.1376L13.6569 53.5604L-0.629697 63.9756L-0.33515 64.3796L13.9554 53.9615L19.4171 61.3008L0.243408 75.2286L-9.45305 62.2169L-9.85397 62.5157L-0.161157 75.5225L-1.91509 76.7965L-1.62124 77.2011L0.137637 75.9234L5.14708 82.6456L-2.71852 88.3742L-2.42416 88.7784L5.44587 83.0466L10.5532 89.9001L-3.45659 100.117L-3.16198 100.521L10.852 90.301L14.7542 95.5374L-4.02199 109.2L-7.54079 104.433L-7.94306 104.73L0.715561 116.459L-4.42582 120.202L-4.13156 120.606L1.01253 116.862L5.9612 123.565L-7.79607 133.616L-7.05866 134.626L3.46844 126.935L8.18301 126.868L8.17758 135.136L-7.16232 135.356L-7.14975 135.848L8.17725 135.629L8.1716 144.213L-7.79446 144.441L-7.78189 144.934L8.17128 144.706L8.16159 159.437L8.66159 159.437L8.67128 144.699L32.9883 144.351L33.265 160.328L33.7649 160.32L33.4882 144.344L53.3871 144.059L53.692 164.468L54.1919 164.461L54.1264 160.08L67.8414 159.959L67.891 163.938L68.391 163.932L68.3414 159.955L84.0441 159.817L84.1435 164.705L85.3932 164.679L85.2941 159.806L108.048 159.606L107.875 165.951L108.625 165.972L108.798 159.6L126.862 159.441L126.92 165.217L127.42 165.212L127.362 159.437L148.34 159.252L148.386 167.405L148.886 167.402L148.84 159.248L151.345 159.226L151.341 158.726L148.837 158.748L148.799 151.901L159.834 151.804L159.83 151.304L148.796 151.401L148.748 142.696L165.374 142.459L165.362 141.966L148.745 142.203L148.697 133.62L166.006 133.373L165.994 132.88L148.695 133.128L148.649 124.88L161.023 124.705L161.016 124.205L148.646 124.38L148.603 116.613L161.583 116.47L161.577 115.97L148.6 116.113L148.555 108.089L161.263 107.997L161.259 107.497L148.552 107.589L148.516 101.16L165.64 101.039L165.636 100.539L148.514 100.66L148.477 94.0719L149.015 94.2663C149.025 94.2701 149.036 94.2736 149.046 94.2768L161.99 98.186L162.352 96.9893L149.424 93.085L149.044 92.9478L163.041 92.8641L163.031 92.3742L148.468 92.4613L148.424 84.5688L163.959 84.4829L163.949 83.993L148.421 84.0788L148.337 69.04L174.017 68.929L173.984 68.4717L148.335 68.5826L148.287 59.9388L167.556 59.9104L167.527 59.1992L137.273 59.2437L137.101 59.0079L156.062 45.3503L165.158 57.8467L165.562 57.5525L156.468 45.0581L163.688 39.8575L163.396 39.4518L156.174 44.6538L151.517 38.2555L172.898 22.7211L172.604 22.3166L151.223 37.8512L146.915 31.9327L166.459 17.7641L166.165 17.3593L146.621 31.5284L141.979 25.1505L164.112 8.74952L163.368 7.7452L141.243 24.1398L136.791 18.0224ZM148.337 158.752L148.299 151.906L127.288 152.09L127.357 158.937L148.337 158.752ZM126.857 158.941L126.788 152.095L108.998 152.251L108.812 159.099L126.857 158.941ZM108.061 159.106L108.248 152.257L85.1447 152.46L85.2839 159.306L108.061 159.106ZM84.0339 159.317L83.8947 152.471L68.2498 152.609L68.3352 159.455L84.0339 159.317ZM67.8352 159.459L67.6406 143.856L53.887 144.052L54.119 159.58L67.8352 159.459ZM83.8845 151.971L68.2436 152.109L68.1406 143.848L83.7148 143.626L83.8845 151.971ZM108.261 151.757L85.1346 151.96L84.9647 143.608L108.492 143.272L108.261 151.757ZM126.783 151.595L109.012 151.751L109.243 143.261L126.697 143.011L126.783 151.595ZM148.296 151.406L127.283 151.59L127.197 143.004L148.248 142.703L148.296 151.406ZM147.787 59.9395L147.835 68.5847L126.45 68.6772L126.363 59.9711L147.787 59.9395ZM147.837 69.0422L126.455 69.1346L126.529 76.5057L147.878 76.2883L147.837 69.0422ZM125.863 59.9718L125.95 68.6794L103.348 68.7771L102.353 60.0064L125.863 59.9718ZM125.955 69.1368L103.4 69.2343L103.889 73.5447C103.893 73.5799 103.892 73.6154 103.886 73.6503L103.407 76.4516L124.868 84.209L126.106 84.2022L125.955 69.1368ZM101.598 60.0075L102.594 68.7803L83.4447 68.8631L83.4375 68.5095L85.3989 67.0766L85.4022 67.0741L94.9254 60.0174L101.598 60.0075ZM102.646 69.2376L83.6764 69.3196L102.691 76.1926L103.138 73.5764L102.646 69.2376ZM147.881 76.7883L147.921 84.0816L126.606 84.1994L126.534 77.0057L147.881 76.7883ZM147.924 84.5716L126.611 84.6894L126.613 84.8396L147.711 92.4658L147.968 92.4643L147.924 84.5716ZM102.409 84.3332L121.246 84.2291L103.193 77.7034L102.352 82.6188L102.409 84.3332ZM122.582 84.7117L102.426 84.8231L102.689 92.735L126.19 92.5945L126.124 85.9922L122.582 84.7117ZM101.602 82.6056L101.659 84.3373L83.7614 84.4363L83.612 77.0892L101.481 77.0847L102.477 77.4444L101.607 82.5299C101.602 82.5549 101.601 82.5803 101.602 82.6056ZM100.099 76.585L83.4796 70.5776L83.6018 76.5892L100.099 76.585ZM82.3516 76.5896L82.2201 70.1223L81.5577 69.8829L72.3745 76.5921L82.3516 76.5896ZM71.6899 77.0923L67.3476 80.2648L67.4007 84.5267L82.5113 84.4432L82.3617 77.0896L71.6899 77.0923ZM101.675 84.8272L83.7714 84.9262L83.9324 92.8472L101.938 92.7395L101.675 84.8272ZM82.5212 84.9331L67.4068 85.0167L67.5057 92.9454L82.6823 92.8547L82.5212 84.9331ZM66.852 80.6268L66.9007 84.5295L61.4691 84.5595L66.852 80.6268ZM66.9068 85.0194L60.7934 85.0532L53.0897 90.6815L53.1248 93.0314L67.0057 92.9484L66.9068 85.0194ZM8.6716 144.206L32.9797 143.858L32.8311 135.277L8.67724 135.622L8.6716 144.206ZM8.67756 135.129L32.8226 134.784L32.6794 126.521L8.68301 126.861L8.67756 135.129ZM8.68333 126.361L32.6708 126.021L32.53 117.892L15.5899 118.079L8.68547 123.123L8.68333 126.361ZM8.18523 123.488L4.1664 126.425L8.18334 126.368L8.18523 123.488ZM33.3225 134.777L33.1794 126.514L53.1207 126.232L53.2441 134.492L33.3225 134.777ZM33.4797 143.851L33.331 135.27L53.2515 134.985L53.3797 143.567L33.4797 143.851ZM33.0299 117.886L33.1707 126.014L53.1133 125.732L52.9928 117.667L33.0299 117.886ZM52.9853 117.167L33.0213 117.387L32.8747 108.924L52.86 108.78L52.9853 117.167ZM32.5213 117.392L32.3747 108.928L28.0729 108.959L16.2848 117.571L32.5213 117.392ZM52.8526 108.28L32.866 108.424L32.8153 105.494L37.6791 101.94L52.7563 101.834L52.8526 108.28ZM32.366 108.428L32.3215 105.855L28.7641 108.454L32.366 108.428ZM68.1344 143.356L83.7048 143.133L83.5303 134.552L68.0274 134.774L68.1344 143.356ZM68.0212 134.281L83.5203 134.059L83.3524 125.804L67.9182 126.022L68.0212 134.281ZM67.4183 126.029L67.5213 134.288L53.7441 134.485L53.6207 126.225L67.4183 126.029ZM67.912 125.522L83.3422 125.304L83.1801 117.334L67.812 117.503L67.912 125.522ZM67.312 117.509L67.412 125.529L53.6132 125.725L53.4928 117.661L67.312 117.509ZM67.8057 117.003L83.17 116.834L83.0018 108.562L67.7018 108.673L67.8057 117.003ZM67.2019 108.676L67.3058 117.009L53.4853 117.161L53.36 108.776L67.2019 108.676ZM67.6956 108.173L82.9916 108.062L82.8606 101.622L67.6153 101.73L67.6956 108.173ZM67.1153 101.733L67.1956 108.176L53.3526 108.276L53.2563 101.831L67.1153 101.733ZM67.609 101.23L82.8505 101.122L82.6923 93.3446L67.5118 93.4354L67.609 101.23ZM67.0118 93.4384L67.109 101.233L53.2488 101.331L53.1321 93.5214L67.0118 93.4384ZM67.5274 134.781L67.6344 143.363L53.8797 143.56L53.7514 134.978L67.5274 134.781ZM148.197 133.628L148.245 142.211L127.192 142.512L127.106 133.929L148.197 133.628ZM148.149 124.887L148.195 133.135L127.101 133.436L127.018 125.186L148.149 124.887ZM148.103 116.619L148.146 124.387L127.013 124.686L126.934 116.852L148.103 116.619ZM148.055 108.093L148.1 116.119L126.929 116.352L126.848 108.246L148.055 108.093ZM148.016 101.164L148.052 107.593L126.843 107.746L126.778 101.313L148.016 101.164ZM147.976 93.8908L148.014 100.664L126.773 100.813L126.695 93.0815L145.427 92.9695L147.976 93.8908ZM126.69 92.5915L144.093 92.4875L126.626 86.1736L126.69 92.5915ZM126.195 93.0845L102.705 93.2249L102.963 100.981L126.273 100.817L126.195 93.0845ZM126.278 101.317L102.979 101.481L103.193 107.916L126.343 107.749L126.278 101.317ZM126.348 108.249L103.21 108.416L103.482 116.61L126.429 116.357L126.348 108.249ZM126.434 116.857L103.499 117.11L103.661 121.999L104.496 125.005L126.513 124.693L126.434 116.857ZM126.518 125.193L104.635 125.503L106.92 133.725L126.601 133.444L126.518 125.193ZM126.606 133.936L107.056 134.216L109.257 142.134C109.267 142.17 109.272 142.208 109.271 142.245L109.256 142.768L126.692 142.519L126.606 133.936ZM101.955 93.2294L83.9424 93.3371L84.1005 101.114L102.212 100.986L101.955 93.2294ZM52.7488 101.334L52.595 91.0429L38.3702 101.435L52.7488 101.334ZM84.1107 101.613L102.229 101.486L102.443 107.922L84.2417 108.053L84.1107 101.613ZM102.459 108.422L84.2518 108.553L84.4199 116.82L102.732 116.618L102.459 108.422ZM11.256 90.0064L15.1585 95.2432L34.3072 81.3096L30.3932 76.0501L11.256 90.0064ZM30.7972 75.7555L34.7115 81.0154L53.4402 67.3875L49.5387 62.0878L30.7972 75.7555ZM49.9426 61.7932L53.8445 67.0933L60.4809 62.2644L53.003 59.5613L49.9426 61.7932ZM52.4356 59.3563L49.6462 61.3905L46.5942 57.2448L52.4356 59.3563ZM54.2216 58.6727L61.7013 61.3763L72.7196 53.3589L68.8248 48.0228L54.2216 58.6727ZM68.5301 47.619L53.6542 58.4676L45.2609 55.4337L44.5972 54.5321L63.5179 40.752L68.5301 47.619ZM69.2288 47.7282L73.1239 53.0647L83.7785 45.3119L84.7659 36.3974L69.2288 47.7282ZM84.8404 35.7242L68.934 47.3244L63.9221 40.4576L83.1303 26.468L85.5091 29.6872L84.8404 35.7242ZM86.134 35.3997L85.1464 44.3165L92.4126 39.0293L88.471 33.6954L86.134 35.3997ZM88.1739 33.2932L86.2086 34.7264L86.6028 31.1673L88.1739 33.2932ZM89.077 33.2534L93.019 38.588L111.688 25.0036L107.766 19.6243L89.077 33.2534ZM107.471 19.2203L88.7799 32.8513L86.7244 30.0698L87.4737 23.3046L102.48 12.3754L107.471 19.2203ZM108.17 19.3297L112.092 24.7094L131.017 10.9391L127.084 5.53592L108.17 19.3297ZM49.2422 61.6851L40.3457 68.1731L35.336 61.2772L42.7704 55.8626L45.7482 56.939L49.2422 61.6851ZM39.9417 68.4677L30.4987 75.3543L25.4052 68.5099L34.9318 61.5715L39.9417 68.4677ZM30.0947 75.649L10.9572 89.6055L5.85006 82.7522L25.001 68.8043L30.0947 75.649ZM11.9626 32.8704L11.8535 31.9275L13.4959 31.7524L11.9626 32.8704ZM11.796 31.4308L14.3037 31.1635L25.7961 22.7841L25.748 22.348L10.9269 23.9207L11.796 31.4308ZM26.2452 22.2952L26.2617 22.4446L26.5043 22.2677L26.2452 22.2952ZM27.3113 21.6793L26.1904 21.7982L25.3541 14.2165L39.6348 12.6939L27.3113 21.6793ZM25.6932 21.851L10.8694 23.4239L9.99338 15.8542L24.8569 14.2695L25.6932 21.851ZM9.02518 7.48775L23.9351 5.91153L24.8021 13.7725L9.93591 15.3575L9.02518 7.48775ZM24.4323 5.85897L25.2993 13.7195L40.4426 12.1049L53.1765 2.82026L24.4323 5.85897ZM141.577 25.4482L122.785 39.3735L127.285 45.5459L146.216 31.8219L141.577 25.4482ZM146.51 32.2262L127.58 45.9499L131.907 51.885L150.818 38.1451L146.51 32.2262ZM151.112 38.5494L132.202 52.289L136.806 58.6039L155.768 44.946L151.112 38.5494ZM111.982 25.4076L116.772 31.9764L98.1504 45.532L93.3162 38.9901L111.982 25.4076ZM97.3351 5.31932L102.185 11.9714L87.5483 22.6318L88.7773 11.5357L97.3351 5.31932ZM121.646 38.6611L117.067 32.3804L98.4476 45.9341L101.115 49.5431C101.154 49.596 101.178 49.6583 101.186 49.7236L101.615 53.5047L121.646 38.6611ZM101.778 54.9398L122.383 39.6712L126.88 45.8394L108.332 59.2863L102.272 59.2953L101.778 54.9398ZM109.185 59.2851L127.175 46.2434L131.503 52.1789L121.748 59.2666L109.185 59.2851ZM122.6 59.2653L131.797 52.5829L136.401 58.8961L135.915 59.2457L122.6 59.2653ZM48.0255 19.5262L42.2985 11.6799L23.2662 25.5569L29.0231 33.3769L48.0255 19.5262ZM48.3203 19.9301L52.303 25.3867L33.3257 39.2214L29.3196 33.7796L48.3203 19.9301ZM52.707 25.0921L48.7243 19.6356L67.8043 5.72825L71.818 11.1598L52.707 25.0921ZM52.5977 25.7905L33.6222 39.6241L39.0704 47.0247L58.0392 33.2458L52.5977 25.7905ZM58.4438 32.9519L53.0018 25.496L72.1152 11.562L77.6253 19.0185L58.4438 32.9519ZM58.334 33.6497L39.3668 47.4274L44.3008 54.1295L63.2231 40.3481L58.334 33.6497ZM63.6273 40.0537L58.7386 33.3558L77.9225 19.4206L82.8331 26.0659L63.6273 40.0537ZM73.0143 53.7628L62.2691 61.5816L71.5127 64.9228L77.8126 60.3368L73.0143 53.7628ZM78.2169 60.0425L73.4186 53.4686L83.704 45.9844L82.4915 56.9308L78.2169 60.0425ZM78.1074 60.7407L72.0804 65.128L81.3573 68.4813L82.1746 67.8842L82.1417 66.2679L78.1074 60.7407ZM82.1239 65.3955L78.5117 60.4464L82.417 57.6035L82.04 61.0073C82.037 61.0343 82.0358 61.0615 82.0364 61.0888L82.1239 65.3955ZM1.2438 41.614L22.8621 25.8515L28.6191 33.6715L14.1286 44.2335L1.2438 41.614ZM14.7448 44.4031L28.9155 34.0741L32.9217 39.516L22.4149 47.1756L14.7448 44.4031ZM22.9823 47.3807L33.2181 39.9186L38.6658 47.3186L33.3976 51.1455L22.9823 47.3807ZM33.9656 51.3508L38.9623 47.7213L43.8966 54.4238L43.4225 54.7692L33.9656 51.3508ZM43.9901 54.9743L44.193 54.8265L44.4149 55.1279L43.9901 54.9743ZM35.0101 81.4166L53.7367 67.7902L58.5647 74.3483L39.8748 87.9536L35.0101 81.4166ZM54.141 67.496L58.9689 74.054L70.2926 65.811L61.0487 62.4696L54.141 67.496ZM40.1733 88.3547L58.8611 74.751L63.7276 81.3614L45.0979 94.9722L40.1733 88.3547ZM59.2653 74.4567L64.1313 81.0665L80.1401 69.3705L70.8603 66.0162L59.2653 74.4567ZM-3.72503 109.602L1.11982 116.165L19.9249 102.476L15.053 95.9384L-3.72503 109.602ZM1.41679 116.567L6.36494 123.27L25.1782 109.525L20.2237 102.877L1.41679 116.567ZM44.6941 95.2672L25.5819 109.23L20.6279 102.583L39.769 88.649L44.6941 95.2672ZM39.4705 88.2478L20.3291 102.182L15.4573 95.6442L34.6057 81.7108L39.4705 88.2478ZM24.7025 68.4032L5.55126 82.3512L0.542202 75.6296L19.7157 61.702L24.7025 68.4032ZM42.2028 55.6574L25.1067 68.1088L20.1202 61.4081L32.7438 52.2383L42.2028 55.6574ZM32.1758 52.033L19.8217 61.007L14.3594 53.667L21.7635 48.2693L32.1758 52.033ZM21.196 48.0642L14.0609 53.2658L10.0254 47.843L13.424 45.3658L14.1257 45.5085L21.196 48.0642ZM78.2321 18.5777L72.7212 11.1201L88.8696 -0.65235L87.484 11.8571L78.2321 18.5777ZM87.4096 12.5292L78.5293 18.9798L83.4394 25.6244L86.1802 23.6281L87.4096 12.5292ZM85.6307 28.5897L83.7365 26.0265L86.1057 24.301L85.6307 28.5897ZM85.0719 44.9891L92.7098 39.4314L97.5441 45.9734L83.8595 55.935L85.0719 44.9891ZM97.8412 46.3755L83.785 56.6077L83.2869 61.1043L83.4065 66.9841L84.658 66.0697L84.6614 66.0672L100.918 54.0207L100.452 49.908L97.8412 46.3755ZM101.081 55.4557L101.517 59.2964L95.8872 59.3047L101.081 55.4557ZM102.748 117.118L84.4301 117.32L84.5921 125.286L103.721 125.016L102.926 122.157C102.919 122.128 102.914 122.099 102.913 122.069L102.748 117.118ZM103.859 125.514L84.6023 125.786L84.7702 134.041L106.145 133.736L103.859 125.514ZM106.281 134.227L84.7802 134.534L84.9547 143.115L108.506 142.779L108.519 142.281L106.281 134.227Z" fill="#333333"/>
</g>
<g style="mix-blend-mode:multiply" opacity="0.9">
<path d="M129 77H33V15H129V77Z" stroke="#333333" stroke-width="2" stroke-linecap="round" stroke-dasharray="2 8"/>
</g>
<line x1="76.75" y1="46.25" x2="84.25" y2="46.25" stroke="#333333" stroke-width="1.5" stroke-linecap="round"/>
<line x1="80.75" y1="42.75" x2="80.75" y2="50.25" stroke="#333333" stroke-width="1.5" stroke-linecap="round"/>
<line x1="21.5" y1="113.5" x2="140.5" y2="113.5" stroke="#71BFE2" stroke-width="3" stroke-linecap="round"/>
<g filter="url(#filter0_d)">
<circle cx="62" cy="114" r="6" fill="#71BFE2"/>
<circle cx="62" cy="114" r="4.5" stroke="#71BFE2" stroke-width="3"/>
</g>
<line x1="21.5" y1="141.5" x2="140.5" y2="141.5" stroke="#71BFE2" stroke-width="3" stroke-linecap="round"/>
<g filter="url(#filter1_d)">
<circle cx="109" cy="142" r="6" fill="#71BFE2"/>
<circle cx="109" cy="142" r="4.5" stroke="#71BFE2" stroke-width="3"/>
</g>
<defs>
<filter id="filter0_d" x="54" y="106" width="16" height="16" filterUnits="userSpaceOnUse" color-interpolation-filters="sRGB">
<feFlood flood-opacity="0" result="BackgroundImageFix"/>
<feColorMatrix in="SourceAlpha" type="matrix" values="0 0 0 0 0 0 0 0 0 0 0 0 0 0 0 0 0 0 127 0"/>
<feOffset/>
<feGaussianBlur stdDeviation="1"/>
<feColorMatrix type="matrix" values="0 0 0 0 0 0 0 0 0 0 0 0 0 0 0 0 0 0 0.2 0"/>
<feBlend mode="normal" in2="BackgroundImageFix" result="effect1_dropShadow"/>
<feBlend mode="normal" in="SourceGraphic" in2="effect1_dropShadow" result="shape"/>
</filter>
<filter id="filter1_d" x="101" y="134" width="16" height="16" filterUnits="userSpaceOnUse" color-interpolation-filters="sRGB">
<feFlood flood-opacity="0" result="BackgroundImageFix"/>
<feColorMatrix in="SourceAlpha" type="matrix" values="0 0 0 0 0 0 0 0 0 0 0 0 0 0 0 0 0 0 127 0"/>
<feOffset/>
<feGaussianBlur stdDeviation="1"/>
<feColorMatrix type="matrix" values="0 0 0 0 0 0 0 0 0 0 0 0 0 0 0 0 0 0 0.2 0"/>
<feBlend mode="normal" in2="BackgroundImageFix" result="effect1_dropShadow"/>
<feBlend mode="normal" in="SourceGraphic" in2="effect1_dropShadow" result="shape"/>
</filter>
<clipPath id="clip0">
<rect width="162" height="92" fill="white"/>
</clipPath>
</defs>
</svg>
