<svg width="162" height="172" viewBox="0 0 162 172" fill="none" xmlns="http://www.w3.org/2000/svg">
<g opacity="0.15" clip-path="url(#clip0)">
<path fill-rule="evenodd" clip-rule="evenodd" d="M136.386 42.3167L117.471 56.0861L122.048 62.3635L140.841 48.4375L136.386 42.3167ZM136.092 41.9125L117.176 55.6821L112.387 49.1134L131.311 35.3433L136.092 41.9125ZM136.791 42.0224L161.504 24.032L161.21 23.6278L136.496 41.6182L131.715 35.0491L154.137 18.734L153.843 18.3297L131.421 34.6449L127.488 29.2413L135.874 23.1255L135.579 22.7215L127.194 28.837L122.09 21.8248L121.686 22.119L126.79 29.1317L107.875 42.9257L102.884 36.081L120.865 22.9854L120.571 22.5813L102.59 35.677L97.7396 29.0255L107.377 22.0246L107.083 21.6201L88.8517 34.8636L90.212 22.5825L89.9578 22.5544L93.8686 19.7033L93.574 19.2993L89.221 22.4728L88.9696 22.4449L88.9442 22.6745L72.4241 34.718L68.4104 29.2865L77.2292 22.8584L76.9347 22.4544L68.1132 28.8843L62.2127 20.8996L61.6095 21.3453L67.5071 29.3261L48.4295 43.2317L42.7026 35.3853L58.6374 23.7668L58.1955 23.1608L53.9831 26.2322L24.3775 29.362L22.1534 9.19717L21.6564 9.25199L23.8803 29.4145L8.9677 30.991L7.63801 19.501L7.14131 19.5584L8.47044 31.0436L-0.624867 32.0051L-0.572297 32.5023L8.52792 31.5403L9.43869 39.4105L-1.2337 40.5483L-1.18069 41.0455L9.49618 39.9072L10.3722 47.4767L-10.2995 49.6702L-10.2468 50.1674L10.4296 47.9734L11.2988 55.4839L-24.4772 59.2982L-24.4242 59.7953L11.3563 55.9806L11.4984 57.2089L0.248349 65.4116L-0.00728268 65.3596L-0.064183 65.6395L-15.2836 76.7364L-14.8418 77.3424L-0.124205 66.6114L12.7603 69.2309L-0.732581 79.0658L-0.438069 79.4698L9.62132 72.1376L13.6569 77.5604L-0.629697 87.9756L-0.33515 88.3796L13.9554 77.9615L19.4171 85.3008L0.243408 99.2286L-9.45305 86.2169L-9.85397 86.5157L-0.161157 99.5225L-1.91509 100.797L-1.62124 101.201L0.137637 99.9234L5.14708 106.646L-2.71852 112.374L-2.42416 112.778L5.44587 107.047L10.5532 113.9L-3.45659 124.117L-3.16198 124.521L10.852 114.301L14.7542 119.537L-4.02199 133.2L-7.54079 128.433L-7.94306 128.73L0.715561 140.459L-4.42582 144.202L-4.13156 144.606L1.01253 140.862L5.9612 147.565L-7.79607 157.616L-7.05866 158.626L3.46844 150.935L8.18301 150.868L8.17758 159.136L-7.16232 159.356L-7.14975 159.848L8.17725 159.629L8.1716 168.213L-7.79446 168.441L-7.78189 168.934L8.17128 168.706L8.16159 183.437L8.66159 183.437L8.67128 168.699L32.9883 168.351L33.265 184.328L33.7649 184.32L33.4882 168.344L53.3871 168.059L53.692 188.468L54.1919 188.461L54.1264 184.08L67.8414 183.959L67.891 187.938L68.391 187.932L68.3414 183.955L84.0441 183.817L84.1435 188.705L85.3932 188.679L85.2941 183.806L108.048 183.606L107.875 189.951L108.625 189.972L108.798 183.6L126.862 183.441L126.92 189.217L127.42 189.212L127.362 183.437L148.34 183.252L148.386 191.405L148.886 191.402L148.84 183.248L151.345 183.226L151.341 182.726L148.837 182.748L148.799 175.901L159.834 175.804L159.83 175.304L148.796 175.401L148.748 166.696L165.374 166.459L165.362 165.966L148.745 166.203L148.697 157.62L166.006 157.373L165.994 156.88L148.695 157.128L148.649 148.88L161.023 148.705L161.016 148.205L148.646 148.38L148.603 140.613L161.583 140.47L161.577 139.97L148.6 140.113L148.555 132.089L161.263 131.997L161.259 131.497L148.552 131.589L148.516 125.16L165.64 125.039L165.636 124.539L148.514 124.66L148.477 118.072L149.015 118.266C149.025 118.27 149.036 118.274 149.046 118.277L161.99 122.186L162.352 120.989L149.424 117.085L149.044 116.948L163.041 116.864L163.031 116.374L148.468 116.461L148.424 108.569L163.959 108.483L163.949 107.993L148.421 108.079L148.337 93.04L174.017 92.929L173.984 92.4717L148.335 92.5826L148.287 83.9388L167.556 83.9104L167.527 83.1992L137.273 83.2437L137.101 83.0079L156.062 69.3503L165.158 81.8467L165.562 81.5525L156.468 69.0581L163.688 63.8575L163.396 63.4518L156.174 68.6538L151.517 62.2555L172.898 46.7211L172.604 46.3166L151.223 61.8512L146.915 55.9327L166.459 41.7641L166.165 41.3593L146.621 55.5284L141.979 49.1505L164.112 32.7495L163.368 31.7452L141.243 48.1398L136.791 42.0224ZM148.337 182.752L148.299 175.906L127.288 176.09L127.357 182.937L148.337 182.752ZM126.857 182.941L126.788 176.095L108.998 176.251L108.812 183.099L126.857 182.941ZM108.061 183.106L108.248 176.257L85.1447 176.46L85.2839 183.306L108.061 183.106ZM84.0339 183.317L83.8947 176.471L68.2498 176.609L68.3352 183.455L84.0339 183.317ZM67.8352 183.459L67.6406 167.856L53.887 168.052L54.119 183.58L67.8352 183.459ZM83.8845 175.971L68.2436 176.109L68.1406 167.848L83.7148 167.626L83.8845 175.971ZM108.261 175.757L85.1346 175.96L84.9647 167.608L108.492 167.272L108.261 175.757ZM126.783 175.595L109.012 175.751L109.243 167.261L126.697 167.011L126.783 175.595ZM148.296 175.406L127.283 175.59L127.197 167.004L148.248 166.703L148.296 175.406ZM147.787 83.9395L147.835 92.5847L126.45 92.6772L126.363 83.9711L147.787 83.9395ZM147.837 93.0422L126.455 93.1346L126.529 100.506L147.878 100.288L147.837 93.0422ZM125.863 83.9718L125.95 92.6794L103.348 92.7771L102.353 84.0064L125.863 83.9718ZM125.955 93.1368L103.4 93.2343L103.889 97.5447C103.893 97.5799 103.892 97.6154 103.886 97.6503L103.407 100.452L124.868 108.209L126.106 108.202L125.955 93.1368ZM101.598 84.0075L102.594 92.7803L83.4447 92.8631L83.4375 92.5095L85.3989 91.0766L85.4022 91.0741L94.9254 84.0174L101.598 84.0075ZM102.646 93.2376L83.6764 93.3196L102.691 100.193L103.138 97.5764L102.646 93.2376ZM147.881 100.788L147.921 108.082L126.606 108.199L126.534 101.006L147.881 100.788ZM147.924 108.572L126.611 108.689L126.613 108.84L147.711 116.466L147.968 116.464L147.924 108.572ZM102.409 108.333L121.246 108.229L103.193 101.703L102.352 106.619L102.409 108.333ZM122.582 108.712L102.426 108.823L102.689 116.735L126.19 116.595L126.124 109.992L122.582 108.712ZM101.602 106.606L101.659 108.337L83.7614 108.436L83.612 101.089L101.481 101.085L102.477 101.444L101.607 106.53C101.602 106.555 101.601 106.58 101.602 106.606ZM100.099 100.585L83.4796 94.5776L83.6018 100.589L100.099 100.585ZM82.3516 100.59L82.2201 94.1223L81.5577 93.8829L72.3745 100.592L82.3516 100.59ZM71.6899 101.092L67.3476 104.265L67.4007 108.527L82.5113 108.443L82.3617 101.09L71.6899 101.092ZM101.675 108.827L83.7714 108.926L83.9324 116.847L101.938 116.74L101.675 108.827ZM82.5212 108.933L67.4068 109.017L67.5057 116.945L82.6823 116.855L82.5212 108.933ZM66.852 104.627L66.9007 108.529L61.4691 108.56L66.852 104.627ZM66.9068 109.019L60.7934 109.053L53.0897 114.681L53.1248 117.031L67.0057 116.948L66.9068 109.019ZM8.6716 168.206L32.9797 167.858L32.8311 159.277L8.67724 159.622L8.6716 168.206ZM8.67756 159.129L32.8226 158.784L32.6794 150.521L8.68301 150.861L8.67756 159.129ZM8.68333 150.361L32.6708 150.021L32.53 141.892L15.5899 142.079L8.68547 147.123L8.68333 150.361ZM8.18523 147.488L4.1664 150.425L8.18334 150.368L8.18523 147.488ZM33.3225 158.777L33.1794 150.514L53.1207 150.232L53.2441 158.492L33.3225 158.777ZM33.4797 167.851L33.331 159.27L53.2515 158.985L53.3797 167.567L33.4797 167.851ZM33.0299 141.886L33.1707 150.014L53.1133 149.732L52.9928 141.667L33.0299 141.886ZM52.9853 141.167L33.0213 141.387L32.8747 132.924L52.86 132.78L52.9853 141.167ZM32.5213 141.392L32.3747 132.928L28.0729 132.959L16.2848 141.571L32.5213 141.392ZM52.8526 132.28L32.866 132.424L32.8153 129.494L37.6791 125.94L52.7563 125.834L52.8526 132.28ZM32.366 132.428L32.3215 129.855L28.7641 132.454L32.366 132.428ZM68.1344 167.356L83.7048 167.133L83.5303 158.552L68.0274 158.774L68.1344 167.356ZM68.0212 158.281L83.5203 158.059L83.3524 149.804L67.9182 150.022L68.0212 158.281ZM67.4183 150.029L67.5213 158.288L53.7441 158.485L53.6207 150.225L67.4183 150.029ZM67.912 149.522L83.3422 149.304L83.1801 141.334L67.812 141.503L67.912 149.522ZM67.312 141.509L67.412 149.529L53.6132 149.725L53.4928 141.661L67.312 141.509ZM67.8057 141.003L83.17 140.834L83.0018 132.562L67.7018 132.673L67.8057 141.003ZM67.2019 132.676L67.3058 141.009L53.4853 141.161L53.36 132.776L67.2019 132.676ZM67.6956 132.173L82.9916 132.062L82.8606 125.622L67.6153 125.73L67.6956 132.173ZM67.1153 125.733L67.1956 132.176L53.3526 132.276L53.2563 125.831L67.1153 125.733ZM67.609 125.23L82.8505 125.122L82.6923 117.345L67.5118 117.435L67.609 125.23ZM67.0118 117.438L67.109 125.233L53.2488 125.331L53.1321 117.521L67.0118 117.438ZM67.5274 158.781L67.6344 167.363L53.8797 167.56L53.7514 158.978L67.5274 158.781ZM148.197 157.628L148.245 166.211L127.192 166.512L127.106 157.929L148.197 157.628ZM148.149 148.887L148.195 157.135L127.101 157.436L127.018 149.186L148.149 148.887ZM148.103 140.619L148.146 148.387L127.013 148.686L126.934 140.852L148.103 140.619ZM148.055 132.093L148.1 140.119L126.929 140.352L126.848 132.246L148.055 132.093ZM148.016 125.164L148.052 131.593L126.843 131.746L126.778 125.313L148.016 125.164ZM147.976 117.891L148.014 124.664L126.773 124.813L126.695 117.081L145.427 116.969L147.976 117.891ZM126.69 116.592L144.093 116.487L126.626 110.174L126.69 116.592ZM126.195 117.084L102.705 117.225L102.963 124.981L126.273 124.817L126.195 117.084ZM126.278 125.317L102.979 125.481L103.193 131.916L126.343 131.749L126.278 125.317ZM126.348 132.249L103.21 132.416L103.482 140.61L126.429 140.357L126.348 132.249ZM126.434 140.857L103.499 141.11L103.661 145.999L104.496 149.005L126.513 148.693L126.434 140.857ZM126.518 149.193L104.635 149.503L106.92 157.725L126.601 157.444L126.518 149.193ZM126.606 157.936L107.056 158.216L109.257 166.134C109.267 166.17 109.272 166.208 109.271 166.245L109.256 166.768L126.692 166.519L126.606 157.936ZM101.955 117.229L83.9424 117.337L84.1005 125.114L102.212 124.986L101.955 117.229ZM52.7488 125.334L52.595 115.043L38.3702 125.435L52.7488 125.334ZM84.1107 125.613L102.229 125.486L102.443 131.922L84.2417 132.053L84.1107 125.613ZM102.459 132.422L84.2518 132.553L84.4199 140.82L102.732 140.618L102.459 132.422ZM11.256 114.006L15.1585 119.243L34.3072 105.31L30.3932 100.05L11.256 114.006ZM30.7972 99.7555L34.7115 105.015L53.4402 91.3875L49.5387 86.0878L30.7972 99.7555ZM49.9426 85.7932L53.8445 91.0933L60.4809 86.2644L53.003 83.5613L49.9426 85.7932ZM52.4356 83.3563L49.6462 85.3905L46.5942 81.2448L52.4356 83.3563ZM54.2216 82.6727L61.7013 85.3763L72.7196 77.3589L68.8248 72.0228L54.2216 82.6727ZM68.5301 71.619L53.6542 82.4676L45.2609 79.4337L44.5972 78.5321L63.5179 64.752L68.5301 71.619ZM69.2288 71.7282L73.1239 77.0647L83.7785 69.3119L84.7659 60.3974L69.2288 71.7282ZM84.8404 59.7242L68.934 71.3244L63.9221 64.4576L83.1303 50.468L85.5091 53.6872L84.8404 59.7242ZM86.134 59.3997L85.1464 68.3165L92.4126 63.0293L88.471 57.6954L86.134 59.3997ZM88.1739 57.2932L86.2086 58.7264L86.6028 55.1673L88.1739 57.2932ZM89.077 57.2534L93.019 62.588L111.688 49.0036L107.766 43.6243L89.077 57.2534ZM107.471 43.2203L88.7799 56.8513L86.7244 54.0698L87.4737 47.3046L102.48 36.3754L107.471 43.2203ZM108.17 43.3297L112.092 48.7094L131.017 34.9391L127.084 29.5359L108.17 43.3297ZM49.2422 85.6851L40.3457 92.1731L35.336 85.2772L42.7704 79.8626L45.7482 80.939L49.2422 85.6851ZM39.9417 92.4677L30.4987 99.3543L25.4052 92.5099L34.9318 85.5715L39.9417 92.4677ZM30.0947 99.649L10.9572 113.605L5.85006 106.752L25.001 92.8043L30.0947 99.649ZM11.9626 56.8704L11.8535 55.9275L13.4959 55.7524L11.9626 56.8704ZM11.796 55.4308L14.3037 55.1635L25.7961 46.7841L25.748 46.348L10.9269 47.9207L11.796 55.4308ZM26.2452 46.2952L26.2617 46.4446L26.5043 46.2677L26.2452 46.2952ZM27.3113 45.6793L26.1904 45.7982L25.3541 38.2165L39.6348 36.6939L27.3113 45.6793ZM25.6932 45.851L10.8694 47.4239L9.99338 39.8542L24.8569 38.2695L25.6932 45.851ZM9.02518 31.4877L23.9351 29.9115L24.8021 37.7725L9.93591 39.3575L9.02518 31.4877ZM24.4323 29.859L25.2993 37.7195L40.4426 36.1049L53.1765 26.8203L24.4323 29.859ZM141.577 49.4482L122.785 63.3735L127.285 69.5459L146.216 55.8219L141.577 49.4482ZM146.51 56.2262L127.58 69.9499L131.907 75.885L150.818 62.1451L146.51 56.2262ZM151.112 62.5494L132.202 76.289L136.806 82.6039L155.768 68.946L151.112 62.5494ZM111.982 49.4076L116.772 55.9764L98.1504 69.532L93.3162 62.9901L111.982 49.4076ZM97.3351 29.3193L102.185 35.9714L87.5483 46.6318L88.7773 35.5357L97.3351 29.3193ZM121.646 62.6611L117.067 56.3804L98.4476 69.9341L101.115 73.5431C101.154 73.596 101.178 73.6583 101.186 73.7236L101.615 77.5047L121.646 62.6611ZM101.778 78.9398L122.383 63.6712L126.88 69.8394L108.332 83.2863L102.272 83.2953L101.778 78.9398ZM109.185 83.2851L127.175 70.2434L131.503 76.1789L121.748 83.2666L109.185 83.2851ZM122.6 83.2653L131.797 76.5829L136.401 82.8961L135.915 83.2457L122.6 83.2653ZM48.0255 43.5262L42.2985 35.6799L23.2662 49.5569L29.0231 57.3769L48.0255 43.5262ZM48.3203 43.9301L52.303 49.3867L33.3257 63.2214L29.3196 57.7796L48.3203 43.9301ZM52.707 49.0921L48.7243 43.6356L67.8043 29.7282L71.818 35.1598L52.707 49.0921ZM52.5977 49.7905L33.6222 63.6241L39.0704 71.0247L58.0392 57.2458L52.5977 49.7905ZM58.4438 56.9519L53.0018 49.496L72.1152 35.562L77.6253 43.0185L58.4438 56.9519ZM58.334 57.6497L39.3668 71.4274L44.3008 78.1295L63.2231 64.3481L58.334 57.6497ZM63.6273 64.0537L58.7386 57.3558L77.9225 43.4206L82.8331 50.0659L63.6273 64.0537ZM73.0143 77.7628L62.2691 85.5816L71.5127 88.9228L77.8126 84.3368L73.0143 77.7628ZM78.2169 84.0425L73.4186 77.4686L83.704 69.9844L82.4915 80.9308L78.2169 84.0425ZM78.1074 84.7407L72.0804 89.128L81.3573 92.4813L82.1746 91.8842L82.1417 90.2679L78.1074 84.7407ZM82.1239 89.3955L78.5117 84.4464L82.417 81.6035L82.04 85.0073C82.037 85.0343 82.0358 85.0615 82.0364 85.0888L82.1239 89.3955ZM1.2438 65.614L22.8621 49.8515L28.6191 57.6715L14.1286 68.2335L1.2438 65.614ZM14.7448 68.4031L28.9155 58.0741L32.9217 63.516L22.4149 71.1756L14.7448 68.4031ZM22.9823 71.3807L33.2181 63.9186L38.6658 71.3186L33.3976 75.1455L22.9823 71.3807ZM33.9656 75.3508L38.9623 71.7213L43.8966 78.4238L43.4225 78.7692L33.9656 75.3508ZM43.9901 78.9743L44.193 78.8265L44.4149 79.1279L43.9901 78.9743ZM35.0101 105.417L53.7367 91.7902L58.5647 98.3483L39.8748 111.954L35.0101 105.417ZM54.141 91.496L58.9689 98.054L70.2926 89.811L61.0487 86.4696L54.141 91.496ZM40.1733 112.355L58.8611 98.751L63.7276 105.361L45.0979 118.972L40.1733 112.355ZM59.2653 98.4567L64.1313 105.066L80.1401 93.3705L70.8603 90.0162L59.2653 98.4567ZM-3.72503 133.602L1.11982 140.165L19.9249 126.476L15.053 119.938L-3.72503 133.602ZM1.41679 140.567L6.36494 147.27L25.1782 133.525L20.2237 126.877L1.41679 140.567ZM44.6941 119.267L25.5819 133.23L20.6279 126.583L39.769 112.649L44.6941 119.267ZM39.4705 112.248L20.3291 126.182L15.4573 119.644L34.6057 105.711L39.4705 112.248ZM24.7025 92.4032L5.55126 106.351L0.542202 99.6296L19.7157 85.702L24.7025 92.4032ZM42.2028 79.6574L25.1067 92.1088L20.1202 85.4081L32.7438 76.2383L42.2028 79.6574ZM32.1758 76.033L19.8217 85.007L14.3594 77.667L21.7635 72.2693L32.1758 76.033ZM21.196 72.0642L14.0609 77.2658L10.0254 71.843L13.424 69.3658L14.1257 69.5085L21.196 72.0642ZM78.2321 42.5777L72.7212 35.1201L88.8696 23.3477L87.484 35.8571L78.2321 42.5777ZM87.4096 36.5292L78.5293 42.9798L83.4394 49.6244L86.1802 47.6281L87.4096 36.5292ZM85.6307 52.5897L83.7365 50.0265L86.1057 48.301L85.6307 52.5897ZM85.0719 68.9891L92.7098 63.4314L97.5441 69.9734L83.8595 79.935L85.0719 68.9891ZM97.8412 70.3755L83.785 80.6077L83.2869 85.1043L83.4065 90.9841L84.658 90.0697L84.6614 90.0672L100.918 78.0207L100.452 73.908L97.8412 70.3755ZM101.081 79.4557L101.517 83.2964L95.8872 83.3047L101.081 79.4557ZM102.748 141.118L84.4301 141.32L84.5921 149.286L103.721 149.016L102.926 146.157C102.919 146.128 102.914 146.099 102.913 146.069L102.748 141.118ZM103.859 149.514L84.6023 149.786L84.7702 158.041L106.145 157.736L103.859 149.514ZM106.281 158.227L84.7802 158.534L84.9547 167.115L108.506 166.779L108.519 166.281L106.281 158.227Z" fill="#333333"/>
</g>
<g filter="url(#filter0_d)">
<rect x="26" y="10" width="109.151" height="137.834" rx="8" fill="white"/>
</g>
<line opacity="0.25" x1="47.375" y1="29" x2="47.375" y2="82" stroke="#333333" stroke-width="0.75" stroke-dasharray="2 2"/>
<line opacity="0.25" x1="70.375" y1="29" x2="70.375" y2="82" stroke="#333333" stroke-width="0.75" stroke-dasharray="2 2"/>
<line opacity="0.25" x1="93.375" y1="29" x2="93.375" y2="82" stroke="#333333" stroke-width="0.75" stroke-dasharray="2 2"/>
<line opacity="0.25" x1="116.375" y1="29" x2="116.375" y2="82" stroke="#333333" stroke-width="0.75" stroke-dasharray="2 2"/>
<path d="M47.5 68L70.5 53.5L94 58.5L117.5 43.5" stroke="#6CC396" stroke-width="3"/>
<circle cx="70" cy="54" r="3" fill="white" stroke="#6CC396" stroke-width="2"/>
<circle cx="93" cy="58" r="3" fill="white" stroke="#6CC396" stroke-width="2"/>
<circle cx="116" cy="44" r="3" fill="white" stroke="#6CC396" stroke-width="2"/>
<circle cx="47" cy="68" r="3" fill="white" stroke="#6CC396" stroke-width="2"/>
<rect x="54.116" y="103" width="62.9188" height="4" fill="#E0E0E0"/>
<circle cx="47.116" cy="105" r="3" fill="#6CC396"/>
<rect x="54.116" y="115" width="62.9188" height="4" fill="#E0E0E0"/>
<circle cx="47.116" cy="117" r="3" fill="#FFDE27"/>
<rect x="54.116" y="127" width="62.9188" height="4" fill="#E0E0E0"/>
<circle cx="47.116" cy="129" r="3" fill="#F99D3E"/>
<defs>
<filter id="filter0_d" x="16" y="0" width="129.151" height="157.834" filterUnits="userSpaceOnUse" color-interpolation-filters="sRGB">
<feFlood flood-opacity="0" result="BackgroundImageFix"/>
<feColorMatrix in="SourceAlpha" type="matrix" values="0 0 0 0 0 0 0 0 0 0 0 0 0 0 0 0 0 0 127 0"/>
<feOffset/>
<feGaussianBlur stdDeviation="5"/>
<feColorMatrix type="matrix" values="0 0 0 0 0 0 0 0 0 0 0 0 0 0 0 0 0 0 0.1 0"/>
<feBlend mode="normal" in2="BackgroundImageFix" result="effect1_dropShadow"/>
<feBlend mode="normal" in="SourceGraphic" in2="effect1_dropShadow" result="shape"/>
</filter>
<clipPath id="clip0">
<rect width="162" height="148" fill="white" transform="translate(0 24)"/>
</clipPath>
</defs>
</svg>
