<svg width="162" height="148" viewBox="0 0 162 148" fill="none" xmlns="http://www.w3.org/2000/svg">
<g clip-path="url(#clip0)">
<path opacity="0.6" fill-rule="evenodd" clip-rule="evenodd" d="M-32.6641 143.22L-25.7822 101.765L-40.1861 99.4308L-47.1715 139.9L-33.0426 143.248L-32.6641 143.22ZM-47.7981 139.751L-40.8205 99.328L-54.8249 97.0582L-61.6161 136.477L-47.7981 139.751ZM-62.2427 136.328L-73.737 133.604L-74.0334 134.855L-62.4613 137.597L-67.9993 169.742L-78.511 167.912L-78.6212 168.545L-68.1085 170.375L-74.6377 208.273L-88.2071 205.911L-88.3174 206.545L-74.7468 208.907L-75.5393 213.507L-74.9059 213.616L-74.1136 209.017L-60.1732 211.444L-61.1622 217.173L-60.5288 217.282L-59.54 211.554L-44.4445 214.181L-45.4307 220.122L-44.1626 220.333L-43.1781 214.402L-28.5343 216.951L-29.7335 224.175L-29.0995 224.28L-27.9011 217.061L0.25119 221.962L-1.31351 231.174L-0.679893 231.281L0.884377 222.072L26.0844 226.458L21.0882 255.172L21.7214 255.282L26.7176 226.568L53.1872 231.176L51.8485 238.839L52.4816 238.949L53.8204 231.286L86.8108 237.029L83.2775 257.171L83.9105 257.282L87.444 237.139L101.259 239.544L101.37 238.911L87.555 236.506L94.1994 198.628L109.419 201.277L106.72 216.299L106.62 216.09L106.04 216.366L106.525 217.385L99.6971 255.39L101.595 255.73L107.799 221.196L108.237 220.984L126.51 259.395L101.175 271.604L101.454 272.183L126.786 259.975L133.791 274.698L134.371 274.422L127.365 259.696L140.556 253.339L161.543 296.699L162.121 296.419L141.135 253.06L153.339 247.179L166.892 275.366L167.471 275.087L153.918 246.9L166.944 240.623L183.178 273.416L185.29 272.37L169.067 239.6L185.933 231.472L192.972 246.034L193.55 245.754L186.512 231.193L212.124 218.851L211.845 218.272L186.233 230.614L167.652 192.173L185.591 183.474L201.331 216.034L201.909 215.755L186.169 183.194L201.619 175.702L208.686 190.368L209.265 190.089L202.198 175.421L217.809 167.851L217.528 167.273L201.919 174.842L188.468 146.926L206.666 152.375L214.37 168.368L214.949 168.089L207.5 152.624L217.058 155.486L217.611 153.639L206.367 150.273L196.667 130.134L210.843 123.183L222.395 147.036L222.973 146.756L211.42 122.9L226.055 115.724L230.799 125.51L231.955 124.95L227.21 115.158L231.326 113.14L230.76 111.986L226.649 114.002L208.05 75.6306L222.154 68.8542L221.876 68.2749L207.77 75.0523L188.95 36.2248L204.101 28.8545L203.82 28.2765L188.669 35.6465L159.736 -24.047L158.579 -23.4863L168.381 -3.26278L153.811 3.95059L138.382 -27.9067L137.804 -27.6265L153.235 4.23576L139.339 11.1156L120.692 -27.5962L149.603 -41.8112L149.319 -42.3879L120.413 -28.1753L117.653 -33.9059L117.074 -33.627L119.837 -27.8917L107.224 -21.6904L98.9293 -38.9058L98.3503 -38.6268L106.647 -21.4068L90.9885 -13.7075L77.1963 -42.2394L76.6177 -41.9597L90.4117 -13.4239L72.5289 -4.63121L54.0241 -42.9163L73.3715 -52.4779L73.0868 -53.0541L53.7444 -43.495L51.4513 -48.2392L50.8727 -47.9595L53.1682 -43.2102L35.0501 -34.2561L21.4619 -62.2799L19.3415 -61.2518L40.8291 -16.9368L40.5069 -15.04L11.4606 -20.043L18.3783 -61.7132L17.7442 -61.8185L10.8272 -20.1521L-3.82085 -22.6752L3.31516 -65.6605L2.04712 -65.871L-5.08761 -22.8934L-21.6719 -25.75L-21.781 -25.1166L-5.19286 -22.2594L-11.3635 14.911L-33.7111 11.2487L-33.8151 11.8829L-11.4688 15.545L-17.3062 50.7083L-31.3685 48.3479L-30.4373 42.9531L-31.0706 42.8438L-32.0023 48.2415L-46.0095 45.8904L-44.8144 38.9531L-45.4477 38.8439L-46.6434 45.784L-48.6765 45.4428L-48.9413 47.0207L-46.915 47.3608L-55.132 95.0552L-64.0347 93.6123L-64.3432 95.5156L-55.4594 96.9554L-62.2427 136.328ZM-54.4976 95.158L-40.4926 97.4279L-32.2745 49.8182L-46.2812 47.4672L-54.4976 95.158ZM-74.0045 208.384L-60.0639 210.81L-53.5225 172.914L-67.4753 170.485L-74.0045 208.384ZM-67.3662 169.852L-53.4132 172.281L-48.0172 141.02L-61.8347 137.746L-67.3662 169.852ZM-25.4664 99.8632L-39.8581 97.5307L-31.6407 49.9246L-17.5683 52.2867L-25.4664 99.8632ZM-44.3392 213.547L-59.4307 210.92L-52.8893 173.024L-38.041 175.609L-44.3392 213.547ZM-37.9358 174.975L-52.78 172.391L-47.3906 141.169L-33.2426 144.521C-33.1788 144.536 -33.113 144.542 -33.0475 144.537L-32.8807 144.525L-37.9358 174.975ZM86.9218 236.396L93.5662 198.518L80.191 196.189L73.5822 234.074L86.9218 236.396ZM94.3105 197.995L109.532 200.644L111.026 192.331L110.722 191.702L111.179 191.48L116.457 162.101L100.847 160.732L94.3105 197.995ZM100.204 160.675L93.6773 197.885L60.6598 192.137L67.5403 152.754L72.0514 153.518L87.0338 159.493C87.0919 159.516 87.1532 159.53 87.2157 159.536L100.204 160.675ZM101.07 159.461L116.685 160.831L119.55 144.882L109.022 123.613L107.404 123.351L101.07 159.461ZM106.77 123.248L100.427 159.405L87.4221 158.264L72.4641 152.299C72.4406 152.289 72.4165 152.281 72.3921 152.275C72.3728 152.27 72.3532 152.265 72.3334 152.262L67.7615 151.488L73.6333 117.878L106.77 123.248ZM60.5492 192.77L79.5578 196.079L72.949 233.964L53.931 230.653L60.5492 192.77ZM53.2978 230.543L59.916 192.66L33.4202 188.048L26.8278 225.935L53.2978 230.543ZM66.9066 152.647L60.0266 192.027L33.5304 187.415L40.3625 148.151L66.9066 152.647ZM72.9988 117.775L67.1278 151.38L40.5829 146.884L46.3982 113.464L72.9988 117.775ZM73.9651 115.978L107.971 121.49L106.946 119.419L106.941 119.411L82.2228 68.4321L82.1927 68.6118L82.2388 68.6199L73.9651 115.978ZM81.5338 68.9211L73.3306 115.875L46.7287 111.564L54.9258 64.4549L81.5338 68.9211ZM-10.095 15.1189L-3.9261 -22.0412L10.722 -19.5181L4.57282 17.5226L-10.095 15.1189ZM5.20706 17.6266L11.3553 -19.409L40.3992 -14.4063L34.1526 22.3701L5.20706 17.6266ZM34.7869 22.4741L41.0326 -14.2972L42.08 -14.1168L42.1105 -14.294L62.1098 26.9518L61.4697 26.8469L61.5091 26.6205L60.8759 26.5103L60.8355 26.7429L34.7869 22.4741ZM41.3118 -15.9411L41.862 -14.8066L41.1402 -14.9309L41.3118 -15.9411ZM34.045 23.0038L5.10181 18.2606L-0.746284 53.4879L28.0463 58.3207L34.045 23.0038ZM4.46757 18.1566L-10.2003 15.7529L-16.0386 50.9211L-1.38012 53.3815L4.46757 18.1566ZM34.6792 23.1077L60.7253 27.3761L54.5663 62.7722L28.6801 58.4271L34.6792 23.1077ZM61.3596 27.4801L55.2001 62.8786L81.6857 67.3242L62.4529 27.6592L61.3596 27.4801ZM32.7871 187.938L26.1946 225.825L0.991997 221.438L7.4318 183.524L32.7871 187.938ZM6.79862 183.414L0.358818 221.328L-27.7958 216.427L-21.4977 178.489L6.79862 183.414ZM-22.1309 178.378L-28.429 216.317L-43.0728 213.768L-36.7746 175.829L-22.1309 178.378ZM-36.6694 175.195L-22.0256 177.744L-16.3095 143.312L-31.5617 144.428L-36.6694 175.195ZM-21.3924 177.855L6.90624 182.781L13.5594 143.611L3.31915 141.876L-15.65 143.264L-21.3924 177.855ZM7.53943 182.891L32.8973 187.305L39.7289 148.043L14.1931 143.718L7.53943 182.891ZM46.0943 111.461L54.292 64.3485L28.4122 60.0045L20.3799 107.294L46.0943 111.461ZM39.9492 146.777L45.7637 113.361L20.057 109.195L14.4083 142.451L39.9492 146.777ZM185.89 182.615L201.34 175.123L187.635 146.677L172.293 142.084L167.446 144.46L185.89 182.615ZM166.869 144.743L185.311 182.895L167.373 191.594L148.97 153.519L166.869 144.743ZM166.887 143.303L170.481 141.541L165.282 139.985L166.887 143.303ZM164.448 139.735L166.309 143.586L148.41 152.362L138.561 131.984L164.448 139.735ZM164.145 137.631L173.029 140.291L182.355 135.719L163.675 96.9506L148.098 104.435L164.145 137.631ZM147.518 104.713L163.31 137.381L137.423 129.631L129.552 113.345L147.518 104.713ZM147.818 103.856L163.396 96.3716L144.771 57.7159L129.18 65.3L147.818 103.856ZM128.602 65.5811L147.239 104.134L129.272 112.767L110.68 74.2998L128.602 65.5811ZM128.901 64.7214L144.492 57.1369L126.29 19.3609L110.704 27.0774L128.901 64.7214ZM110.128 27.3626L128.323 65.0025L110.4 73.7212L92.2668 36.2051L110.128 27.3626ZM110.007 25.6368L125.596 17.9194L106.926 -20.8278L91.2682 -13.1289L110.007 25.6368ZM90.6914 -12.8453L109.431 25.922L91.5704 34.7645L72.8086 -4.05255L90.6914 -12.8453ZM127.089 259.116L140.276 252.761L121.728 214.442L108.815 220.704L127.089 259.116ZM140.855 252.482L153.06 246.6L134.597 208.202L122.307 214.161L140.855 252.482ZM153.639 246.321L166.659 240.047L147.74 201.828L135.175 207.921L153.639 246.321ZM168.782 239.024L185.654 230.893L167.074 192.453L149.861 200.8L168.782 239.024ZM148.392 153.802L166.794 191.874L149.575 200.224L130.853 162.402L148.392 153.802ZM128.602 163.167L147.455 201.252L134.897 207.342L116.984 170.09L116.98 170.092L118.385 162.27L128.602 163.167ZM116.788 171.164L134.319 207.622L122.027 213.583L112.648 194.206L116.788 171.164ZM112.455 195.282L121.448 213.863L108.539 220.123L108.142 219.288L112.455 195.282ZM107.947 220.374L107.961 220.404L107.94 220.414L107.947 220.374ZM206.611 75.6089L187.794 36.7871L173.162 43.9051L191.932 82.6617L206.611 75.6089ZM192.212 83.2401L206.891 76.1873L225.495 114.568L210.859 121.743L192.212 83.2401ZM191.352 82.94L172.584 44.1862L158.555 51.0105L177.208 89.7357L191.352 82.94ZM177.487 90.3147L191.633 83.5184L210.282 122.026L196.109 128.975L177.487 90.3147ZM176.629 90.014L157.977 51.2916L145.349 57.4348L163.975 96.0933L176.629 90.014ZM164.254 96.6722L176.908 90.593L195.532 129.258L182.932 135.436L164.254 96.6722ZM128.693 113.045L110.102 74.5809L92.0751 83.35L109.058 118.374L109.062 118.383L110.699 121.69L128.693 113.045ZM111.432 122.051L128.972 113.623L136.589 129.381L112.959 122.306L112.937 122.3L112.922 122.296C112.911 122.293 112.9 122.291 112.889 122.288C112.871 122.284 112.854 122.281 112.837 122.278L111.432 122.051ZM169.079 -1.82294L187.514 36.2087L172.881 43.3266L154.509 5.39065L169.079 -1.82294ZM153.933 5.67581L172.303 43.6078L158.276 50.4314L140.033 12.5572L153.933 5.67581ZM139.457 12.8423L157.698 50.7126L145.07 56.8558L126.866 19.0757L139.457 12.8423ZM91.6908 36.4903L109.822 74.0023L91.7947 82.7717L73.6778 45.4081L91.6908 36.4903ZM53.4479 -42.6315L35.3305 -33.6778L53.8645 4.5458L71.9521 -4.34762L53.4479 -42.6315ZM72.9797 43.9683L54.1449 5.12411L72.2318 -3.76896L90.9944 35.0497L72.9797 43.9683ZM126.172 17.6342L107.503 -21.1114L120.115 -27.3126L138.763 11.4008L126.172 17.6342ZM183.49 136.594L196.09 130.416L205.534 150.023L187.335 144.574L183.49 136.594ZM186.501 144.325L182.913 136.877L174.842 140.834L186.501 144.325ZM112.466 124.172L137.726 131.734L147.833 152.645L130.282 161.25L111.881 124.077L112.466 124.172ZM127.934 161.818L118.614 161L120.988 147.786L127.934 161.818ZM-31.3451 143.124L-16.0929 142.008L-9.84122 104.349L-24.5134 101.971L-31.3451 143.124ZM-15.4334 141.959L3.3029 140.588C3.35442 140.585 3.4062 140.587 3.45714 140.596L13.7747 142.343L19.4226 109.092L-9.20679 104.452L-15.4334 141.959ZM-1.00832 55.0663L27.7783 59.8982L19.7455 107.191L-8.89102 102.55L-1.00832 55.0663ZM-1.64215 54.9599L-9.52545 102.447L-24.1976 100.069L-16.3006 52.4995L-1.64215 54.9599ZM209.341 38.3059L207.709 34.9402L206.947 34.8859L206.992 34.2448L207.386 34.2728L167.272 -48.4857L168.429 -49.0464L194.929 5.62572L194.955 5.24535L196.987 5.38374L201.968 -59.7902L202.609 -59.7413L197.628 5.42739L211.628 6.38052L214.339 -31.4561L214.98 -31.4101L212.269 6.42419L226.578 7.39835L227.713 -7.45828L228.354 -7.40931L227.219 7.44201L241.574 8.41931L241.756 5.87625L242.397 5.92218L242.215 8.46297L263.497 9.9119L263.453 10.5531L242.169 9.10403L240.198 36.6094L277.206 39.2447L277.16 39.8858L240.152 37.2504L237.382 75.9205L236.74 75.8746L239.511 37.2048L225.023 36.1731L223.004 62.589L222.521 62.5521L240.649 99.9501L239.492 100.511L209.46 38.552L209.324 38.5423L209.341 38.3059ZM195.06 5.89672L196.938 6.02459L196.691 9.26123L195.06 5.89672ZM208.865 34.3782L197.17 10.2503L197.259 10.2571L197.579 6.06824L211.582 7.02159L209.618 34.4318L208.865 34.3782ZM210.086 36.8966L222.384 62.269L224.382 36.1274L210.213 35.1185L210.086 36.8966ZM209.572 35.0729L209.525 35.7385L209.189 35.0455L209.572 35.0729ZM210.259 34.4774L224.431 35.4866L226.529 8.0392L212.223 7.06525L210.259 34.4774ZM239.557 36.5637L225.072 35.5323L227.17 8.08286L241.528 9.06037L239.557 36.5637Z" fill="#333333"/>
<g style="mix-blend-mode:multiply" opacity="0.3">
<circle cx="55" cy="64" r="54" fill="#FFDE27"/>
</g>
<g style="mix-blend-mode:multiply">
<circle cx="55" cy="64" r="8" fill="#FFDE27"/>
</g>
</g>
<defs>
<clipPath id="clip0">
<rect width="162" height="148" rx="8" fill="white"/>
</clipPath>
</defs>
</svg>
